<?xml version="1.0" encoding="UTF-8" standalone="no"?>
<svg
   xmlns:dc="http://purl.org/dc/elements/1.1/"
   xmlns:cc="http://creativecommons.org/ns#"
   xmlns:rdf="http://www.w3.org/1999/02/22-rdf-syntax-ns#"
   xmlns:svg="http://www.w3.org/2000/svg"
   xmlns="http://www.w3.org/2000/svg"
   xmlns:sodipodi="http://sodipodi.sourceforge.net/DTD/sodipodi-0.dtd"
   xmlns:inkscape="http://www.inkscape.org/namespaces/inkscape"
   width="682.67"
   height="682.67"
   viewbox="0 0 682.67 682.67"
   version="1.1"
   id="svg48"
   sodipodi:docname="help-the-helpless-logo_.svg"
   inkscape:version="1.0.1 (3bc2e813f5, 2020-09-07)">
  <defs
     id="defs52" />
  <sodipodi:namedview
     pagecolor="#ffffff"
     bordercolor="#666666"
     borderopacity="1"
     objecttolerance="10"
     gridtolerance="10"
     guidetolerance="10"
     inkscape:pageopacity="0"
     inkscape:pageshadow="2"
     inkscape:window-width="1366"
     inkscape:window-height="716"
     id="namedview50"
     showgrid="false"
     inkscape:zoom="0.40136524"
     inkscape:cx="-9.381606"
     inkscape:cy="351.76478"
     inkscape:window-x="-8"
     inkscape:window-y="22"
     inkscape:window-maximized="1"
     inkscape:current-layer="svg48"
     inkscape:document-rotation="0" />
  <metadata
     id="metadata36">
    <rdf:RDF>
      <cc:Work
         rdf:about="">
        <dc:format>image/svg+xml</dc:format>
        <dc:type
           rdf:resource="http://purl.org/dc/dcmitype/StillImage" />
        <dc:title />
      </cc:Work>
    </rdf:RDF>
  </metadata>
  <g
     transform="translate(4.7119 1.9021)"
     stroke-width="0"
     id="g44">
    <path
       d="m312.71 527.11c-34.487-4.7511-64.353-19.93-90.87-46.185-11.654-11.539-11.654-11.539 3.2747-18.229 15.693-7.033 27.171-10.789 43.349-14.185 12.426-2.6083 12.045-2.646 13.033 1.2899 2.0606 8.2102 12.793 12.285 21.035 7.9862 3.6486-1.9029 4.0291-1.8117 8.3797 2.0082 5.2198 4.583 12.567 5.3821 17.529 1.9065 2.7998-1.9611 3.2518-1.8758 7.0656 1.3333 5.2279 4.399 13.885 4.7069 19.009 0.6762 3.2312-2.5416 3.7267-2.5927 6.4765-0.66666 7.1766 5.0267 18.105 1.0107 20.984-7.7109 1.1332-3.4338 2.912-5.078 7.9633-7.3609 10.069-4.5508 17.104-10.272 21.985-17.881 2.4564-3.8291 6.8728-8.8879 9.8143-11.242 5.8084-4.648 10.971-13.798 10.971-19.444 0-2.2313 1.1383-4.2941 3.0669-5.5578 5.4144-3.5477 9.406-10.253 9.7519-16.381 0.23867-4.2278 1.4053-6.9998 4.364-10.37 5.5469-6.3176 7.5251-14.165 5.6386-22.367-1.8287-7.9515 0.4626-15.67 11.433-38.51 8.3321-17.348 9.5635-16.689 19.157 10.243 12.073 33.891 12.129 91.861 0.0836 86.53-11.209-4.9606-30.288-0.29784-33.515 8.191-0.887 2.333-2.2558 3.2789-4.7448 3.2789-15.383 0-22.623 19.592-11.391 30.824 5.1764 5.1765 5.1764 5.1765 18.708 5.1765 19.31 0 19.222 0.74873-3.0255 25.732-34.86 39.146-86.956 58.157-139.53 50.915zm-104.75-34.314c-3.9161-4.3333-3.9161-4.3333 0.41721-0.41722 4.0393 3.6504 4.9462 4.7506 3.9161 4.7506-0.22946 0-2.1795-1.95-4.3333-4.3333zm104.75-65.524c0-0.28821 0.93116-0.88133 2.0692-1.3181 1.1866-0.45532 1.7218-0.2318 1.2546 0.52402-0.78301 1.2669-3.3239 1.8739-3.3239 0.79405zm104.67-16.809c1.3273-1.4667 2.7133-2.6667 3.08-2.6667 0.36667 0-0.41932 1.2-1.7466 2.6667s-2.7133 2.6667-3.08 2.6667 0.41932-1.2 1.7466-2.6667zm-242.03-26.666c-2.01-23.007 1.1344-49.344 8.278-69.334 3.0972-8.6667 3.0972-8.6667 29.889-9.3333 28.021-0.69726 28.727-0.84766 34.163-7.2757 6.695-7.9174-0.82866-23.391-11.373-23.391-4.0642 0-4.8643-0.5587-6.1719-4.3097-0.82629-2.3703-3.396-6.2635-5.7105-8.6514-4.2082-4.3417-4.2082-4.3417-0.9614-7.8553 23.98-25.951 72.262-45.85 111.25-45.85 17.961 0 32.13 2.5632 53.095 9.6054 4.2689 1.4339 8.5223 2.3151 9.4522 1.9583 3.7176-1.4266-18.516 49.875-28.092 64.819-6.8463 10.684-10.375 12.595-31.348 16.972-13.875 2.8958-24.031 6.4916-25.626 9.0731-0.47487 0.76834-4.3023 2.3835-8.5054 3.5893-15.02 4.309-24.991 13.051-28.592 25.068-3.6742 12.263-38.078 31.478-84.891 47.412-14.212 4.8372-14.212 4.8372-14.852-2.4966zm143.78 3.0887c0.96249-0.38516 2.1125-0.3378 2.5556 0.1052 0.44305 0.44305-0.34446 0.75819-1.75 0.70029-1.5533-0.064-1.8692-0.37992-0.80556-0.80554zm93.583-9.6772c0-0.69005 0.59314-1.6212 1.3181-2.0692 0.75581-0.46712 0.97933 0.0681 0.52401 1.2546-0.88638 2.3099-1.8421 2.7325-1.8421 0.81461zm97.76-8.0787c0-4.7667 0.242-6.7167 0.53777-4.3333 0.29576 2.3833 0.29576 6.2833 0 8.6667-0.29577 2.3833-0.53777 0.43333-0.53777-4.3333zm-344.01-2c8e-3 -4.4 0.2564-6.0393 0.55314-3.6428 0.29675 2.3965 0.29063 5.9965-0.0136 8-0.30424 2.0035-0.54702 0.0428-0.53954-4.3572zm334.62 2c0-3.3 0.26003-4.65 0.57783-3 0.31781 1.65 0.31781 4.35 0 6-0.3178 1.65-0.57783 0.3-0.57783-3zm-184.1-15.333c0.0272-2.2 0.326-2.9386 0.66406-1.6413 0.33805 1.2973 0.31582 3.0973-0.0495 4-0.36524 0.9027-0.64183-0.15871-0.61465-2.3587zm76.74 1.117c0.91667-0.36988 2.4167-0.36988 3.3333 0 0.91666 0.36988 0.16666 0.67252-1.6667 0.67252s-2.5833-0.30264-1.6667-0.67252zm-37.333-5.3333c0.91666-0.36988 2.4167-0.36988 3.3333 0s0.16667 0.67252-1.6667 0.67252c-1.8333 0-2.5833-0.30264-1.6667-0.67252zm-42.024-21.784c0-2.5667 0.2744-3.6167 0.60977-2.3333 0.33536 1.2833 0.33536 3.3833 0 4.6667-0.33537 1.2833-0.60977 0.23334-0.60977-2.3333z"
       fill="#94dce8"
       id="path38" />
    <path
       d="m115.53 495.84c-16.549-5.6336-31.9-22.563-24.197-26.686 16.883-9.0355 47.673 1.1857 56.812 18.86 4.5702 8.8379-15.498 13.653-32.615 7.8256zm25.548-0.50103c9.264-3.226 8.0641-7.7702-4.7606-18.029-15.649-12.518-50.591-13.708-44.282-1.508 7.6551 14.803 33.3 25.019 49.043 19.537zm372.02 1.4422c-17.768-6.8416 6.2375-29.119 32.437-30.102 22.423-0.84108 26.278 5.8829 10.914 19.034-12.452 10.658-31.671 15.565-43.35 11.068zm23.033-1.6023c19.207-5.7147 34.544-22.815 23.445-26.141-18.213-5.4569-54.339 10.137-51.945 22.423 0.93768 4.8127 17.541 6.9786 28.501 3.7179zm-411.42-40.949c-18.47-9.1027-30.463-32.02-27.411-52.378 2.8907-19.277 34.442 6.8838 39.49 32.743 3.5231 18.047-0.85665 25.166-12.08 19.635zm10.905-6.5373c2.6734-21.351-24.839-61.157-35.146-50.85-10.658 10.658 6.0622 47.395 25.575 56.192 7.8618 3.5444 8.5034 3.1863 9.5712-5.3422zm383.87 6.9805c-8.4913-15.866 6.9512-47.923 27.698-57.497 16.459-7.5953 14.956 26.366-2.0012 45.226-9.6758 10.762-23.079 17.162-25.697 12.271zm13.89-4.021c13.195-6.6487 24.197-27.788 23.02-44.232-1.8419-25.743-37.02 8.6528-37.02 36.197 0 13.823 1.1748 14.497 14 8.0354zm-449.35-2.9867c-12.914-6.8223-23.961-29.348-16.618-33.886 4.4409-2.7446 24.065 14.06 23.91 20.476-0.03275 1.3578-0.86612 0.66707-2.1555-1.7864-6.9187-13.165-21.791-21.466-21.791-12.163 0 9.7647 7.6146 21.126 17.614 26.28 6.4673 3.3335 6.1584 3.5058 6.7829-3.7835 0.54252-6.3333 0.54252-6.3333 0.40639 0.22911-0.16158 7.7889-1.1323 8.341-8.1483 4.6345zm478.77 0.27653c-2.7802-4.4985 3.4537-19.972 10.983-27.26 10.652-10.311 17.546-6.3145 13.574 7.87-3.2344 11.552-20.819 25.437-24.557 19.39zm9.5395-2.9206c11.893-6.5605 21.836-31.214 11.548-28.632-9.019 2.2636-17.021 11.93-19.103 23.076-1.7391 9.3087-0.67079 10.094 7.5559 5.5563zm-496.29-43.435c-10.426-5.4964-16.632-16.239-16.654-28.826-0.01633-9.6691 1.8435-10.647 10.369-5.4525 15.794 9.6226 21.815 42.466 6.2842 34.279zm7.0752-4.7991c0.92974-10.943-6.1519-24.093-15.559-28.892-6.272-3.1997-6.8496-2.7484-6.8496 5.3517 0 16.495 21.122 38.684 22.409 23.54zm488.31 4.4356c-3.6639-6.846 0.57386-20.645 9.0297-29.402 10.167-10.53 16.192-10.432 16.236 0.26404 0.0659 15.987-19.95 39.071-25.266 29.138zm10.849-3.1065c12.955-9.7712 18.776-37.362 6.548-31.039-10.846 5.6088-18.761 20.476-16.614 31.21 1.0568 5.2841 2.8734 5.2531 10.066-0.17164zm-468.23-13.083c-15.86-7.1642-32.185-38.564-20.05-38.564 14.933 0 32.641 17.606 34.348 34.15 0.87018 8.4313-2.858 9.5823-14.298 4.4144zm12.875-4.5562c-2.1226-15.486-14.898-29.146-30.101-32.187-10.765-2.1531-0.1848 25.686 12.371 32.549 14.001 7.6534 18.816 7.5551 17.731-0.36213zm400.12 5.6925c-5.0184-13.078 14.889-37.261 31.788-38.616 13.417-1.0756 0.96934 27.873-15.625 36.339-6.9735 3.5576-15.225 4.7199-16.163 2.2765zm17.308-4.5534c9.5808-5.4781 19.033-21.05 19.033-31.356 0-8.4506-24.564 5.5788-30.647 17.504-8.854 17.355-4.2065 22.898 11.615 13.852zm-474.34-26.147c-9.233-6.2491-14.644-26.171-6.8812-25.335 7.505 0.80858 16.253 13.33 16.253 23.263 0 6.109-2.5676 6.6766-9.3715 2.0716zm8.0382-2.7903c0-8.5208-11.782-24.15-16.164-21.442-3.9547 2.4441 2.6696 19.538 9.1185 23.53 5.5195 3.4169 7.0452 2.9647 7.0452-2.0882zm498.18 3.7875c-3.2027-8.346 10.027-29.228 17.059-26.925 2.1668 0.70967 2.5012 7.3672 0.69423 13.821-2.6955 9.6273-15.469 19.056-17.753 13.104zm9.9045-3.6236c7.3966-7.3966 10.968-21.04 5.507-21.04-6.7834 0-15.04 14.634-13.73 24.333 0.30855 2.284 4.2074 0.72263 8.223-3.293zm-53.034-20.182c-12.132-10.96-15.942-34.772-7.9876-49.921 5.0269-9.5733 6.9437-10.021 13.119-3.0622 16.523 18.619 11.72 68.207-5.1312 52.983zm10.385-5.0919c7.7361-16.538-0.38411-51.766-11.932-51.766-6.7078 0-11.267 26.232-6.9127 39.774 5.6207 17.48 13.833 22.707 18.845 11.993zm-433.18 0.56718c-7.36-15.705-3.3637-39.942 8.4096-51.002 10.825-10.17 20.564 23.666 12.12 42.11-8.6081 18.803-14.657 21.423-20.529 8.8923zm11.328 3.3333c12.533-13.83 14.744-39.832 4.5061-52.983-3.3104-4.2522-7.605-0.80509-13.509 10.843-9.6839 19.106-2.1369 54.432 9.0027 42.14zm-36.254-3.5027c-17.401-10.844-24.842-42.418-8.2694-35.087 10.626 4.7006 19.281 22.733 16.406 34.186-1.0166 4.0503-2.7722 4.2448-8.137 0.9016zm6.8782-9.8101c-1.2463-10.523-8.9829-21.782-17.074-24.847-11.844-4.4867-4.1962 22.64 8.8968 31.556 7.7737 5.2935 9.4374 3.9286 8.1776-6.7092zm469.89 9.8372c-5.2524-9.8142 3.8954-28.854 17.051-35.489 5.8359-2.9433 7.5747-1.2507 7.3208 7.1261-0.3368 11.111-11.373 29.505-17.702 29.505-0.67125 0-2.1235 0.34654-3.2272 0.77008-1.2036 0.46187-2.5814-0.30349-3.4424-1.9123zm14.837-7.9305c6.0296-6.674 8.2954-13.362 7.8809-23.261-0.50672-12.101-19.882 6.4967-22.26 21.367-1.9528 12.212 4.3121 13.037 14.379 1.894zm-495.74-43.666c-3.6958-14.725 7.8919-36.435 23.076-43.233 18.599-8.3268 7.2414 34.357-11.715 44.028-7.0727 3.6082-10.313 3.3816-11.361-0.79472zm12.285-1.4182c17.273-10.123 26.765-48.589 9.8288-39.831-11.285 5.8356-21.31 21.83-21.31 33.998 0 10.324 2.0451 11.363 11.481 5.8332zm467.6 0.83223c-19.308-11.074-28.374-52.37-9.3294-42.499 11.809 6.1211 20.395 18.967 21.86 32.705 1.5303 14.35-1.0584 16.373-12.531 9.7936zm10.743-7.562c-0.28519-15.605-8.1898-27.662-22.256-33.947-10.205-4.5602-6.4932 23.703 4.4961 34.232 12.739 12.205 17.986 12.12 17.76-0.28475z"
       fill="#8ec860"
       id="path40" />
    <path
       d="m116.04 494.38c-13.452-4.209-28.922-19.829-23.827-24.058 3.7697-3.1286 25.46-3.22 32.494-0.13707 11.206 4.9122 25.75 19.064 22.713 22.101-4.9858 4.9858-19.121 5.9289-31.379 2.0936zm397.33 0.82667c-15.127-4.6694 8.9378-26.087 30.536-27.177 19.224-0.96973 23.883 2.1707 16.695 11.253-10.879 13.746-31.626 20.741-47.231 15.924zm-387.33-42.174c-19.512-8.7968-36.232-45.534-25.575-56.192 2.1329-2.1329 16.77 6.3022 22.776 13.125 16.162 18.361 18.219 50.019 2.7987 43.067zm394.69 0.14569c-7.849-14.666 7.3145-45.668 26.514-54.208 8.6854-3.8635 8.318-4.1626 9.1487 7.4475 1.5734 21.99-28.098 60.896-35.663 46.761zm-435.36-6.2543c-12.468-6.5522-25.047-31.124-15.934-31.124 9.3524 0 21.934 15.641 21.934 27.267 0 6.709-0.25805 6.8749-6 3.8574zm478.86-0.14616c-2.7479-4.4462 3.7312-19.531 10.843-25.246 11.52-9.2562 16.394-4.4264 9.69 9.6012-4.8945 10.241-17.797 20.072-20.533 15.645zm-487.55-46.508c-12.107-8.0971-21.048-28.286-15.143-34.191 1.69-1.69 11.328 4.6313 15.19 9.9624 9.0126 12.442 8.9783 30.265-0.04665 24.229zm495.52-1.9844c-2.1468-10.734 5.7675-25.601 16.614-31.21 5.5828-2.887 6.9605-1.4425 6.2594 6.5626-1.4713 16.8-20.37 37.165-22.873 24.648zm-454.83-13.591c-14.604-5.7261-24.667-18.688-24.667-31.774 0-11.159 22.502 0.0812 30.073 15.022 7.6141 15.026 5.6572 21.09-5.4059 16.752zm410.85 0.74033c-4.1596-6.7304 9.4848-28.411 21.146-33.6 13.734-6.1121 15.693-4.8859 12.009 7.5194-4.4037 14.829-28.429 33.728-33.155 26.081zm-457.23-30.671c-6.4489-3.9922-13.073-21.086-9.1185-23.53 4.3819-2.7081 16.164 12.921 16.164 21.442 0 5.0528-1.5257 5.505-7.0452 2.0882zm506.91 1.3688c-1.0083-7.4638 1.234-13.672 7.2233-20 7.6156-8.046 11.835-3.2439 7.1023 8.0831-3.0895 7.3943-13.74 16.254-14.326 11.917zm-463.58-23.333c-10.364-12.559-7.2633-42.255 5.671-54.316 10.483-9.7759 17.275 27.494 7.9634 43.696-6.421 11.172-10.534 14.376-13.634 10.62zm417.98-3.1828c-10.482-10.791-12.98-31.507-5.6154-46.559 4.1424-8.4667 4.8713-8.6819 10.082-2.977 16.315 17.862 11.936 66.424-4.4666 49.536zm-448.23-4.7541c-13.093-8.9158-20.741-36.042-8.8968-31.556 8.0915 3.0651 15.828 14.323 17.074 24.847 1.2599 10.638-0.40386 12.003-8.1776 6.7092zm479.21 1.4338c-3.4544-6.4545 1.7259-20.179 10.665-28.254 8.7046-7.8641 11.826-6.3979 10.837 5.0909-1.1083 12.878-17.535 30.575-21.502 23.163zm-480.43-49.939c-4.5137-11.762 6.5463-33.996 20.501-41.212 16.937-8.7583 7.4446 29.708-9.8288 39.831-6.8491 4.0139-9.5287 4.3607-10.672 1.3815zm480.16-1.1126c-11.709-6.9902-17.722-16.793-19.055-31.061-1.1838-12.679 1.5285-13.605 14.276-4.8774 15.464 10.587 20.046 45.053 4.7785 35.938z"
       fill="#7ac342"
       id="path42" />
  </g>
  <path
     d="m145.42 409.78c41.287-0.852 93.025-24.621 126.67-47.36 15.789-10.672 16.753-34.383 38.667-36.64 0.2493 12.053 2.9427 23.899 2.6467 36-0.1587 6.5213-3.1734 14.873-0.5094 21.156 3.0827 7.264 14.911 6.3946 20.405 2.832 11.959-7.7547 10.227-28.241 24.129-33.459 11.087-4.1587 28.396 3.224 39.995 4.0173 18.553 1.2707 38.267-7.9866 56-5.2133-3.936 17.852-17.789 27.847-36 28 4.804 7.4107 16.217 3.3813 22.667 0 1.308 15.62-19.471 19.452-30.667 22.667v1.3333h18.667c-2.9226 14.484-17.413 19.961-30.667 20l12 5.3333c-4.0374 5.728-12.963 17.017-21.276 14.944-9.1774-2.288-9.3174-17.417-21.331-9.2453-1.9747 1.3427-3.6973 3.328-5.3933 4.968-3.0614-12.761-14.365-11.932-20-1.3333h-2.6667c-3.8653-12.297-14.745-14.705-21.333-2.6667-3.0174-5.6147-5.5014-12.72-13.329-11.569-9.9 1.4533-11.639 13.833-20.057 17.484-7.196 3.12-16.321 2.3386-23.947 4.0853-16.755 3.8387-32.811 9.5107-48 17.608-6.1066 3.2547-31.96 15.112-29.557 24.016 1.9253 7.1373 12.92-3.4 16.224-3.3533 3.732 0.052 6.696 3.896 8.9533 6.4026 69.476 77.124 195.66 74.681 263.04-4.1266 35.001-40.937 48.645-96.687 38.073-149.21-4.708-23.392-20.855-44.863-19.401-68-9.2787 1.436-12.985 9.7494-17.211 17.333-6.6107 11.867-11.975 24.539-16.533 37.333-2.116 5.9427-3.1467 14.693-7.2267 19.596-6.516 7.832-25.648 8.3787-35.029 8.404l1.3333-8c-9.8773 4.1333-16.932 7.62-28 6.4347-12.715-1.3614-28.384-8.16-39.86 0.9946-8.316 6.632-6.5853 18.597-12.764 26.799-3.2333 4.2907-11.496 8.5667-15.524 2.6813-3.472-5.072 0.148-16.324 0.148-22.243 0-10.556-5.492-24.812-0.5693-34.613 8.868-17.66 41.197-9.1253 55.004-21.825 13.704-12.605 20.177-37.537 27.82-54.228 3.5693-7.7947 17.745-29.885 14.221-38.217-0.8293-1.9613-16.712-1.8053-20.476-2.96-25.477-7.824-50.765-11.205-77.333-8.2227-74.201 8.3307-133.03 62.937-151.01 134.73-3.7187 14.857-3.6613 30.141-3.66 45.333 0 5.5253 2.4573 14.641 0.476 19.7-3.1467 8.036-14.939 3.2106-17.809 12.3m196-207.05c16.068 0.21333 32.693 2.8067 48 7.7453 4.148 1.3387 12.083 2.912 14.572 6.84 3.0213 4.7693-3.7107 15.777-5.4947 20.468-7.056 18.551-14.22 40.513-27.101 55.943-9.9708 11.944-27.988 12.013-41.976 15.612-9.632 2.4774-21.737 8.6867-30.667 13.343-13.741 7.1653-14.537 20.396-24.439 30.281-18.357 18.325-50.213 28.469-74.228 36.821-6.8706 2.3893-19.187 9.0666-26.469 7.824-6.0907-1.0387-5.2627-18.881-5.4787-23.824-1.0746-24.584 4.8-51.304 15.623-73.333 29.981-61.023 89.395-98.629 157.66-97.72m141.33 83.053c46.491 65.303 23.092 166.73-36 215.38-41.005 33.76-93.537 45.773-145.33 36.005-28.212-5.32-54.348-19.611-75.948-38.156-5.1347-4.4093-18.157-13.872-18.257-21.173-0.088-6.3747 12.261-10.268 16.872-12.453 19.399-9.196 40.949-16.877 62.667-16.937 2.5307 16.353 15.016 10.941 25.333 6.6667 6.9667 13.279 11.851 6.3827 22.667 6.8773 11.711 0.536 14.932 11.192 25.333-1.544 4.076 2.1774 8.3827 6.2734 13.333 5.6187 8.16-1.08 7.7906-9.1693 12.751-13.52 10.805-9.4787 20.94-12.845 29.963-25.187 15.376-21.031 31.637-41.717 40.148-66.912 2.5387-7.5173-0.9947-15.049 0.24-22.667 2.6133-16.108 13.775-41.4 26.232-52m-178.64 143.44c11.588-1.5013 4.5747 25.969-5.3413 26.429-13.665 0.6333-4.2-25.195 5.3413-26.429m23.881 2.8934c9.1707-0.2507 7.056 25.975-2.6946 26.721-13.635 1.044-7.848-26.435 2.6946-26.721m23.968 2.6666c9.1414-0.2546 7.128 26.704-2.5946 27.709-13.167 1.3613-8.2347-27.408 2.5946-27.709m20.28 2.6667c7.668-2.2627 9.6934 21.32 1.0574 23.221-10.304 2.2707-8.4614-21.039-1.0574-23.221z"
     fill="#171919"
     id="path46" />
  <path
     id="path56"
     style="opacity:1;fill:#008000;fill-opacity:0;stroke:#000000;stroke-width:1.14835;stroke-miterlimit:4;stroke-dasharray:none;stroke-opacity:1"
     d="M 646.50204,367.49573 A 305.16705,300.18405 0 0 1 341.33499,667.67978 305.16705,300.18405 0 0 1 36.167938,367.49573 305.16705,300.18405 0 0 1 341.33499,67.311676 305.16705,300.18405 0 0 1 646.50204,367.49573 Z" />
  <path
     style="fill:#ffffff;fill-opacity:0;stroke:#000000;stroke-width:1.32775;opacity:0"
     d="M 317.66578,665.70284 C 248.49844,659.41999 185.13431,631.98404 135.16367,586.68153 84.05999,540.35181 51.226121,478.72033 40.294479,408.60539 c -3.108042,-19.93481 -3.108042,-62.28456 0,-82.21937 10.376312,-66.55309 39.103152,-123.03492 86.320511,-169.72074 16.2561,-16.0731 26.11108,-24.07173 45.92113,-37.27113 36.35291,-24.221876 80.0451,-40.794355 126.44343,-47.960088 19.99486,-3.087995 64.71602,-3.087995 84.71088,0 67.67499,10.451687 126.63214,39.695598 173.55322,86.085828 45.54646,45.03116 74.90378,103.26388 85.13185,168.86613 3.12066,20.01567 3.09716,62.14119 -0.0462,82.84225 -9.67233,63.69879 -37.91943,120.11987 -83.08796,165.96083 -46.89336,47.59144 -106.29696,77.63693 -174.30518,88.16102 -12.59701,1.94936 -55.2778,3.44208 -67.2704,2.35272 z m 55.43579,-122.59619 c 77.27982,-16.22466 131.09556,-76.27215 138.96429,-155.0561 2.77415,-27.77575 -0.79143,-50.95193 -12.4204,-80.73198 -5.06892,-12.98077 -8.18063,-23.06359 -9.13183,-29.58981 -1.32646,-9.10081 -1.6485,-9.83788 -3.99168,-9.1359 -4.81048,1.44115 -10.3442,8.16667 -16.62336,20.20354 -6.95429,13.33106 -13.08666,28.04645 -16.44351,39.45824 -3.22278,10.95599 -4.9742,14.12093 -9.24834,16.71227 -4.68999,2.84348 -14.92751,5.08832 -23.20518,5.08832 -6.06939,0 -6.16743,-0.0615 -6.16743,-3.87053 0,-3.19814 -0.37872,-3.71437 -2.18006,-2.97164 -15.22475,6.27745 -18.9207,6.54459 -42.66687,3.08397 -18.87539,-2.75077 -26.55065,1.72351 -31.36206,18.28247 -2.97115,10.22551 -7.20801,15.93456 -12.88246,17.35876 -2.81232,0.70584 -3.98502,0.30069 -5.87102,-2.02844 -2.07756,-2.56567 -2.25594,-4.19922 -1.50577,-13.78871 0.51266,-6.5534 0.23995,-15.86636 -0.68596,-23.42485 -1.49808,-12.22921 -1.46255,-12.69597 1.4045,-18.45065 3.91583,-7.85976 9.84293,-10.65756 29.7234,-14.03051 17.80168,-3.02026 24.14263,-5.99823 30.06925,-14.12177 4.81553,-6.60056 9.97959,-16.75449 14.82245,-29.14482 2.08554,-5.33584 7.77794,-17.98723 12.64976,-28.11422 6.10156,-12.68324 9.04296,-20.33909 9.45272,-24.60353 0.32717,-3.40495 0.3834,-6.22809 0.12493,-6.27366 -0.25847,-0.0456 -5.51522,-0.81551 -11.68167,-1.71103 -6.16645,-0.89551 -17.37819,-3.08667 -24.91496,-4.86925 -61.43529,-14.53047 -121.88588,2.25195 -165.61132,45.97738 -23.97993,23.97994 -41.52117,55.80933 -48.81738,88.58139 -1.6654,7.48038 -2.19134,15.82179 -2.25215,35.71877 -0.0786,25.73424 -0.10477,25.97988 -3.02026,28.34077 -1.61753,1.30983 -3.74757,2.38152 -4.73343,2.38152 -2.92996,0 -8.7801,3.48558 -9.64855,5.74871 -0.73353,1.91155 0.20219,2.03196 10.24903,1.31881 27.80155,-1.9734 70.04846,-17.63682 105.48799,-39.11058 13.78237,-8.3511 17.96382,-12.23947 25.15591,-23.39273 8.46042,-13.12014 12.88674,-17.28254 21.05045,-19.79534 2.48376,-0.7645 2.67749,-0.12507 4.1567,13.71944 0.9644,9.02622 1.21882,19.40237 0.67235,27.41999 -1.04007,15.25911 0.15021,18.23769 8.14873,20.39146 4.19388,1.1293 5.87124,0.96152 10.39555,-1.0398 6.254,-2.76643 8.81441,-6.03759 14.78972,-18.89516 2.38811,-5.13871 5.79472,-10.67428 7.57025,-12.30126 4.05938,-3.71978 12.07389,-5.23632 20.16125,-3.81499 3.43484,0.60366 10.97358,1.9597 16.75277,3.01341 11.22796,2.04719 14.76362,1.85779 36.73725,-1.96806 15.01974,-2.61508 25.6314,-3.06379 25.6314,-1.08381 0,5.78906 -8.95902,17.44633 -16.27754,21.17996 -6.74203,3.43952 -15.19773,5.17417 -16.32567,3.34913 -0.61057,-0.98795 -1.18352,-0.70878 -1.79025,0.87235 -1.9919,5.19081 8.80372,7.57915 17.61588,3.8972 4.78595,-1.9997 5.27301,-1.1597 2.47028,4.2602 -2.64269,5.1104 -7.62856,8.24229 -19.18039,12.0482 -5.56241,1.83262 -10.11349,3.80377 -10.11349,4.38032 0,0.57657 4.2044,1.0483 9.34311,1.0483 5.13871,0 9.34311,0.50754 9.34311,1.12789 0,0.62033 -2.00861,3.56341 -4.46358,6.54018 -5.08595,6.16696 -10.976,9.34237 -19.51707,10.52193 -6.35578,0.87776 -7.63737,2.2857 -3.11437,3.42144 1.54161,0.3871 3.92411,1.53165 5.29443,2.54343 2.4306,1.79464 2.3697,1.96697 -2.4915,7.0507 -2.74064,2.8661 -6.8177,5.99961 -9.06012,6.96334 -5.01101,2.1536 -7.80004,0.94559 -13.77185,-5.96499 -4.8698,-5.63532 -8.00794,-6.03576 -14.22697,-1.81541 l -4.39429,2.98204 -1.37009,-3.00706 c -2.95082,-6.47633 -13.10413,-5.9403 -18.18473,0.96006 -1.58887,2.15798 -2.33232,2.48171 -2.80944,1.22337 -1.49164,-3.93403 -7.38729,-9.10495 -10.33777,-9.06701 -7.4727,0.096 -10.6586,0.5471 -12.09806,1.71256 -1.08928,0.88194 -1.77412,0.6451 -2.33102,-0.80615 -0.43372,-1.13026 -2.32728,-2.8507 -4.20794,-3.82322 -5.62172,-2.90711 -11.5725,-0.46401 -17.58481,7.21946 -6.40867,8.19001 -10.53198,10.46012 -20.87174,11.49105 -17.67179,1.76196 -37.77665,8.18675 -59.35063,18.96631 -15.84305,7.91608 -26.99802,15.3646 -29.21559,19.50817 -3.76541,7.03572 1.65403,10.38367 9.40531,5.81029 2.40947,-1.42161 5.25166,-2.58475 6.31599,-2.58475 1.06433,0 7.84328,5.64084 15.06433,12.53519 28.38781,27.10346 61.51746,43.05093 100.58131,48.41635 13.60043,1.86803 44.07821,0.59743 58.55016,-2.44092 z M 145.87722,499.53107 c 2.46665,-0.68519 5.48366,-2.34951 6.70448,-3.6985 1.91363,-2.11454 2.00621,-2.96807 0.67145,-6.19046 -1.89749,-4.58094 -10.56127,-12.73632 -17.03132,-16.0319 -11.56796,-5.89222 -25.5719,-7.93628 -35.49283,-5.18064 -8.866956,2.46291 -9.322022,7.55692 -1.453168,16.26681 11.257778,12.461 31.709388,18.97139 46.601388,14.83469 z m 395.86763,-1.0873 c 10.12471,-3.15116 17.2856,-7.52071 23.66236,-14.43867 6.13801,-6.65895 6.60594,-11.33482 1.40819,-14.07138 -4.95649,-2.60954 -26.32984,-1.35004 -35.13213,2.07029 -8.1254,3.15732 -19.02958,12.31934 -20.19682,16.96998 -2.5295,10.0783 12.84418,14.88969 30.2584,9.46978 z M 141.32178,455.66663 c 3.92942,-5.61004 1.34435,-22.83651 -5.26479,-35.0836 -4.01552,-7.44098 -15.27238,-19.158 -21.57184,-22.45368 -8.5413,-4.46854 -13.57955,-0.19491 -13.57955,11.51867 0,13.63087 6.2559,28.46135 15.99962,37.92933 10.59612,10.29627 20.55883,13.59696 24.41656,8.08928 z m 397.23983,-0.81564 c 7.01041,-4.82533 16.22452,-14.8444 19.42974,-21.12713 6.17448,-12.10299 7.63927,-28.95346 2.9658,-34.1176 -2.61962,-2.89463 -5.56187,-2.79246 -11.84164,0.41125 -18.47126,9.42333 -33.16403,41.59715 -25.68199,56.23775 1.77003,3.46355 9.03581,2.78911 15.12809,-1.40427 z M 96.624199,444.10922 c 0.107458,-10.2038 -1.146573,-13.23614 -8.203812,-19.83736 -6.878819,-6.43434 -13.748427,-10.15434 -16.676638,-9.03068 -2.745961,1.05372 -2.55727,10.04524 0.344384,16.41055 4.384037,9.61719 16.717329,21.03991 21.913978,20.29604 2.227112,-0.31879 2.553158,-1.29349 2.622088,-7.83855 z m 481.470481,4.5815 c 6.92876,-4.39857 12.19416,-11.2181 14.4507,-18.71605 2.25989,-7.50903 1.20677,-12.4068 -2.88874,-13.43471 -7.23791,-1.8166 -21.19151,14.41825 -22.51963,26.20135 -1.1703,10.38285 1.60248,11.88831 10.95767,5.94941 z m 10.51587,-47.6878 c 7.55011,-6.95944 13.0858,-18.25522 13.0858,-26.70204 0,-11.1448 -5.56993,-11.98019 -15.38174,-2.30696 -6.7132,6.61836 -10.97733,14.93766 -11.74352,22.9115 -1.16123,12.0852 4.75569,14.65499 14.03946,6.0975 z m -499.405521,2.40261 c 1.666829,-2.697 0.655294,-13.37362 -1.791011,-18.90391 -4.963653,-11.22115 -17.856953,-21.70024 -22.232071,-18.06922 -2.951017,2.44913 -1.593791,16.84393 2.301892,24.41398 5.132512,9.97344 18.531257,17.72057 21.72119,12.55915 z M 133.29505,383.2227 c 0,-7.10906 -6.06543,-19.14707 -12.64026,-25.08704 -5.89804,-5.32852 -16.3961,-10.54224 -21.262545,-10.55975 -8.650566,-0.0312 -6.583186,11.95015 4.746965,27.51052 4.9531,6.8024 11.99636,11.94264 19.40576,14.16255 7.45686,2.23413 9.75008,0.81674 9.75008,-6.02628 z m 412.96551,3.74034 c 7.71847,-3.63299 15.88087,-11.80606 19.95428,-19.98031 3.30847,-6.63924 4.03627,-14.23924 1.59716,-16.67835 -6.23463,-6.23463 -28.04245,8.05633 -34.78824,22.79719 -2.24257,4.90048 -3.13272,14.35894 -1.50455,15.9871 1.71618,1.71619 8.72696,0.70527 14.74135,-2.12563 z m -29.31324,-16.35296 c 0,-1.37033 -0.54341,-3.33238 -1.20759,-4.36012 -0.86776,-1.34277 -1.20759,-0.11586 -1.20759,4.36012 0,4.47591 0.33983,5.70288 1.20759,4.36011 0.66418,-1.02774 1.20759,-2.98979 1.20759,-4.36011 z M 84.20137,358.14441 c 2.499302,-9.95802 -8.472343,-26.7754 -17.468246,-26.7754 -4.96111,0 -3.028618,14.49197 2.86677,21.49825 3.390564,4.02946 9.767469,8.38741 12.284312,8.39505 0.843398,0.002 1.886122,-1.4005 2.317164,-3.1179 z m 503.54218,1.37229 c 7.43135,-3.86653 12.70705,-12.88688 12.70705,-21.72641 0,-10.07076 -7.16159,-9.0319 -14.63208,2.12255 -6.09405,9.09923 -7.56704,17.63102 -3.52213,20.40074 1.74777,1.19677 1.56368,1.2237 5.44716,-0.79688 z m -265.47724,-5.38908 c -0.31585,-1.21208 -0.59504,-0.52201 -0.62043,1.53348 -0.0254,2.05548 0.23303,3.04717 0.57428,2.20376 0.34123,-0.8434 0.362,-2.52516 0.0462,-3.73724 z m -195.3136,-18.49407 c 2.09814,-1.76547 5.63784,-6.9509 7.866,-11.52317 3.71567,-7.6247 4.0484,-9.2934 4.01743,-20.14783 -0.0289,-10.11628 -0.51095,-12.86792 -3.32017,-18.9513 -5.7995,-12.55886 -13.00132,-10.55853 -20.45853,5.68244 -3.14381,6.84688 -3.5209,9.05606 -3.54076,20.74335 -0.0201,11.85207 0.2959,13.68356 3.36554,19.50404 3.02734,5.74027 4.68422,7.48364 7.41695,7.80407 0.46131,0.0541 2.5554,-1.34612 4.65354,-3.1116 z m 421.644,-0.35564 c 3.27135,-3.61479 4.60602,-9.83856 4.59372,-21.42123 -0.0145,-13.66648 -3.34765,-24.88417 -9.54528,-32.12473 -5.43566,-6.35034 -8.4965,-6.4271 -12.60484,-0.31615 -9.08061,13.50695 -7.11431,37.86679 4.11555,50.98637 4.9841,5.8228 9.83461,6.8606 13.44085,2.87574 z M 98.536297,329.18895 c 5.145063,-13.49332 -12.520319,-40.2707 -23.320674,-35.34974 -7.967927,3.63044 0.07202,25.7335 12.858396,35.34974 2.505348,1.88419 5.590363,3.42581 6.85559,3.42581 1.36237,0 2.833075,-1.39695 3.606688,-3.42581 z m 221.238513,-1.22204 c -0.31584,-1.21208 -0.59504,-0.52201 -0.62043,1.53348 -0.0254,2.05548 0.23303,3.04717 0.57428,2.20376 0.34123,-0.84341 0.362,-2.52517 0.0462,-3.73724 z m 259.70868,0.0199 c 5.84344,-5.48236 11.24375,-17.24386 11.94844,-26.02286 0.52694,-6.56458 0.28712,-8.04996 -1.40446,-8.69909 -8.93422,-3.42838 -24.7818,15.18129 -24.99306,29.34913 -0.11299,7.58052 2.08608,10.39276 7.27392,9.30192 2.1176,-0.44525 5.34643,-2.21336 7.17516,-3.9291 z M 99.286811,278.61762 c 10.207129,-5.27831 22.135109,-29.83991 19.530689,-40.21675 -1.88066,-7.49314 -10.56117,-5.75537 -20.622759,4.12851 -8.270137,8.12406 -12.860993,18.61889 -12.860993,29.40059 0,11.38656 2.525546,12.59705 13.953063,6.68765 z m 479.502309,-0.30368 c 1.32968,-5.29783 -0.37853,-16.26821 -3.64367,-23.40021 -7.71667,-16.85542 -26.36494,-28.0825 -29.02711,-17.47559 -3.02805,12.06474 6.64378,32.50918 19.12356,40.42362 7.45398,4.72718 12.43256,4.89336 13.54722,0.45218 z"
     id="path867" />
  <path
     style="opacity:0;fill:#ffffff;fill-opacity:0;stroke:#ac0000;stroke-width:1.32775;stroke-opacity:1"
     d="m 304.58254,536.98131 c -28.88833,-5.26907 -53.38031,-17.52839 -80.35574,-40.22163 -17.62438,-14.82661 -19.70703,-20.12597 -10.19005,-25.92888 5.05519,-3.08238 6.25792,-3.06841 4.31043,0.0499 -1.39353,2.2314 -0.61549,3.42297 7.77537,11.90806 22.93291,23.19045 46.11052,36.34711 78.46287,44.53906 9.15266,2.31754 13.96815,2.6722 35.50382,2.61485 22.6934,-0.0604 25.9702,-0.35059 36.74957,-3.25398 31.13835,-8.38705 53.4083,-21.04075 74.926,-42.57266 13.66985,-13.67887 22.50021,-25.07576 22.02505,-28.42658 -0.38706,-2.72954 -1.01525,-2.89129 -13.76142,-3.54349 -14.46964,-0.74039 -17.47989,-2.15279 -21.64345,-10.15504 -5.12769,-9.85519 2.11543,-24.66534 12.06296,-24.66534 2.49963,0 5.06584,-1.5769 8.90714,-5.47332 7.57194,-7.68059 19.29718,-10.38944 29.53007,-6.82224 3.46769,1.20885 4.37219,1.07353 6.40374,-0.95802 3.83439,-3.83439 5.25344,-15.3066 4.44724,-35.95347 -0.79073,-20.25063 -3.7333,-37.08249 -9.09115,-52.00236 -9.34599,-26.02553 -11.47336,-26.05482 -23.17683,-0.31906 -7.52748,16.55281 -8.72076,21.42339 -7.72483,31.53042 0.57412,5.82651 0.31343,9.5796 -0.86624,12.47041 -1.55233,3.80412 -1.68047,2.95581 -1.59944,-10.5896 0.078,-13.03181 0.51885,-15.95634 3.8341,-25.43332 2.06031,-5.88957 5.85015,-14.47086 8.42187,-19.06952 4.59448,-8.2157 11.34063,-16.93773 13.10066,-16.93773 1.93402,0 11.93746,19.5605 15.8266,30.94691 6.2836,18.39683 8.05623,31.22091 7.43373,53.7793 -2.2168,80.33288 -53.72713,144.68224 -130.30155,162.77941 -18.48483,4.3686 -52.00288,5.17474 -71.01052,1.70787 z"
     id="path869" />
  <path
     style="opacity:1;fill:#ffffff;fill-opacity:0;stroke:#ac0000;stroke-width:1.32775;stroke-opacity:0"
     d="m 172.19464,395.62847 c -2.84368,-2.84368 -3.84695,-13.76554 -3.03646,-33.05548 1.74677,-41.57333 19.43304,-79.77247 51.2814,-110.75855 42.92152,-41.75944 102.16567,-57.73035 159.86053,-43.09485 15.8317,4.01604 23.20722,7.68322 23.68788,11.77784 0.20107,1.7129 -0.0792,2.54665 -0.62288,1.85278 -0.54365,-0.69388 -4.63227,-2.259 -9.08582,-3.47806 -4.45355,-1.21905 -13.42294,-3.67524 -19.93197,-5.45819 -10.37786,-2.8427 -14.36478,-3.25796 -32.38946,-3.37356 -15.38806,-0.0987 -23.11996,0.42199 -30.75959,2.07142 -31.14637,6.72464 -62.74892,22.53652 -79.99541,40.02453 l -6.73504,6.82936 4.08794,4.65591 c 2.24837,2.56075 4.86622,6.51858 5.81745,8.79519 1.36061,3.2564 2.45663,4.14027 5.13859,4.14394 5.59056,0.008 10.99534,4.17959 13.32817,10.28802 1.90307,4.98312 1.92658,5.95561 0.24145,9.9887 -3.14474,7.52641 -6.77783,8.55664 -33.80023,9.58466 -13.68245,0.52053 -24.92189,1.51127 -26.45545,2.332 -8.01602,4.29005 -17.02542,57.35587 -13.14551,77.4278 1.0454,5.40816 1.23023,5.59388 5.24095,5.26611 12.29323,-1.00464 68.20278,-25.81499 83.36254,-36.99283 10.67891,-7.87396 9.09552,-4.3172 -1.78786,4.01603 -9.6545,7.39231 -27.88453,16.68427 -44.75269,22.81074 -6.16645,2.23963 -17.48529,6.46908 -25.15297,9.39877 -17.50797,6.6895 -21.78611,7.55717 -24.39556,4.94772 z m 0.26251,-26.57558 c -0.0661,-4.95332 -0.2687,-5.44392 -1.24366,-3.0115 -1.03376,2.57915 -0.4401,8.9288 0.8348,8.9288 0.26831,0 0.45229,-2.66278 0.40886,-5.9173 z"
     id="path871" />
  <path
     style="opacity:1;fill:#ffffff;fill-opacity:0;stroke:#ac0000;stroke-width:1.32775;stroke-opacity:0"
     d="M 312.68278,665.11369 C 249.83714,658.61754 194.05887,635.48432 145.75253,595.88183 97.003779,555.91663 61.145414,499.04675 46.117605,437.86495 c -11.130994,-45.31693 -11.130994,-95.42156 0,-140.73849 C 64.274637,223.20485 111.06075,158.5384 176.72777,116.60075 240.34125,75.974579 317.62302,60.341702 392.41066,72.97152 c 119.24987,20.138408 215.80488,108.7889 244.14171,224.15494 7.6791,31.26345 10.50835,73.87311 6.87588,103.55397 -14.41826,117.81172 -95.52918,215.2191 -209.3334,251.39177 -37.4622,11.90736 -84.01156,16.90747 -121.41207,13.04149 z M 369.9872,543.79661 c 66.62005,-11.94307 120.53374,-61.93152 137.06042,-127.0816 4.68742,-18.47831 5.98466,-31.59304 5.17665,-52.33367 -0.895,-22.97321 -2.83698,-32.13384 -11.45006,-54.01157 -7.74133,-19.66345 -10.57232,-29.62187 -10.57232,-37.18978 0,-2.93927 -0.58843,-5.34414 -1.30761,-5.34414 -3.29538,0 -8.885,4.24061 -12.48327,9.47052 -5.96513,8.67001 -16.95353,32.59187 -21.85173,47.57142 -2.39965,7.33855 -5.21928,14.65659 -6.26585,16.26229 -3.01338,4.62328 -12.04516,7.89151 -23.84217,8.6275 l -10.51893,0.65624 0.86133,-3.92154 c 0.47372,-2.15685 0.60321,-3.92154 0.28776,-3.92154 -0.31543,0 -4.42423,1.45273 -9.13065,3.2283 -9.43951,3.5612 -16.16776,3.64048 -36.14823,0.42594 -17.28286,-2.78054 -25.93918,1.71232 -30.26156,15.70657 -3.21278,10.40175 -5.52123,14.72409 -9.56083,17.90164 -3.97826,3.1293 -7.07147,3.30631 -9.81603,0.56175 -1.6902,-1.69019 -1.98132,-4.41197 -1.69891,-15.88328 0.18745,-7.61395 -0.11623,-19.16913 -0.6748,-25.67816 -0.96539,-11.24934 -0.87017,-12.0469 1.92561,-16.12737 4.04625,-5.90559 9.17407,-8.58996 20.59427,-10.78093 26.82742,-5.14687 27.36282,-5.32292 33.80606,-11.11595 6.79855,-6.11247 12.31944,-15.75991 19.94459,-34.85202 2.73645,-6.85161 8.63132,-19.94783 13.09971,-29.1027 8.4148,-17.24031 10.79682,-25.18883 8.41035,-28.06436 -0.75091,-0.9048 -5.14801,-1.97119 -9.77132,-2.36977 -4.62331,-0.39858 -15.36986,-2.43464 -23.88121,-4.52459 -51.21396,-12.57549 -102.1409,-3.72417 -144.38693,25.09509 -22.70176,15.48662 -46.79408,44.28367 -59.2219,70.78675 -12.74494,27.17934 -15.99745,43.11518 -15.53458,76.11231 0.23377,16.66478 -0.0968,23.73094 -1.17054,25.02477 -0.82296,0.99162 -3.88545,2.50955 -6.80552,3.37318 -5.29659,1.56652 -9.66934,4.50624 -9.66934,6.50056 0,1.8048 11.82738,1.15769 24.79882,-1.35682 24.57506,-4.76387 56.68191,-17.29773 82.95839,-32.38526 21.41168,-12.29424 24.85663,-15.24117 33.96623,-29.05601 8.21169,-12.45313 14.1834,-17.95699 20.22394,-18.63958 l 3.11425,-0.35191 1.43553,16.19473 c 0.97712,11.023 1.05254,19.0996 0.23616,25.29101 -1.3189,10.00269 0.048,16.89351 3.72251,18.76715 4.29822,2.19161 10.14875,2.54212 14.17385,0.84916 6.13207,-2.57914 10.20186,-7.62025 15.63742,-19.36949 2.6943,-5.82387 6.10863,-11.65915 7.5874,-12.9673 4.76484,-4.21506 12.90684,-4.53308 30.70627,-1.19934 17.51974,3.28136 19.90009,3.23006 42.90716,-0.9246 7.15507,-1.29208 15.95515,-2.34923 19.55573,-2.34923 h 6.54652 l -1.39297,4.04868 c -2.22755,6.47439 -7.01134,12.92383 -12.30946,16.59542 -6.00249,4.15974 -17.38018,7.42141 -18.66069,5.34951 -1.03981,-1.68245 -3.63397,-0.327 -3.63397,1.89874 0,4.21247 9.89236,5.50451 19.62054,2.56264 6.87653,-2.0795 -0.0836,8.91875 -8.25407,13.04287 -2.48317,1.25341 -7.73823,3.20653 -11.6779,4.34029 -3.93968,1.13375 -7.16306,2.6063 -7.16306,3.27232 0,0.66878 3.90432,1.21095 8.72024,1.21095 10.48118,0 10.84398,0.94199 3.42581,8.89505 -5.74198,6.15602 -9.72337,8.17002 -19.13259,9.67828 l -6.09381,0.97683 5.99349,2.7744 c 6.49644,3.00721 6.48944,2.77231 0.29436,9.87469 -3.48493,3.99533 -11.26002,7.80976 -14.00171,6.86918 -1.23867,-0.42494 -4.57384,-3.22271 -7.41148,-6.21729 -6.00123,-6.33311 -9.77407,-6.94587 -15.01419,-2.43851 l -3.49489,3.00617 -3.20299,-3.83667 c -4.44235,-5.32122 -9.7571,-5.23493 -15.41644,0.25034 l -4.21671,4.08699 -1.89197,-3.65867 c -3.37366,-6.52394 -5.00126,-7.16058 -15.96755,-6.24584 -3.25779,0.27175 -6.5555,2.14576 -3.7759,2.14576 0.77784,0 1.08133,0.86764 0.6744,1.92808 -0.56252,1.4659 -1.47031,0.85317 -3.78695,-2.55608 -6.25063,-9.19863 -12.64771,-8.45147 -22.42793,2.61954 -7.71397,8.73205 -9.77536,9.70165 -24.87714,11.70128 -19.81291,2.62341 -46.16036,12.2833 -67.27133,24.664 -14.75509,8.65326 -20.24124,14.51526 -18.30553,19.55966 0.98605,2.56959 4.60017,2.35731 10.42064,-0.61206 2.68605,-1.37033 5.88709,-2.48115 7.11342,-2.4685 1.22633,0.0127 7.09416,4.93854 13.03962,10.94644 27.45706,27.74535 62.99646,45.07758 102.68866,50.08029 12.09181,1.52402 41.3881,0.53324 54.67741,-1.84915 z m -221.43173,-45.4638 c 4.01367,-1.82187 5.29443,-3.10139 5.29443,-5.28932 0,-4.18287 -5.40956,-11.5014 -11.70078,-15.82988 -9.68916,-6.66631 -17.69618,-9.20549 -29.40891,-9.32613 -17.690682,-0.1822 -22.292855,3.72721 -16.128779,13.70089 2.610106,4.22324 11.069659,11.02675 18.268349,14.69213 9.64244,4.90968 25.2811,5.86275 33.67569,2.05231 z m 390.08776,1.13759 c 17.72207,-4.08567 35.49307,-19.47188 31.37573,-27.16522 -1.77906,-3.32418 -7.52146,-4.32977 -21.03538,-3.68366 -8.9735,0.42903 -12.36363,1.22139 -19.48617,4.55443 -4.83337,2.2618 -10.73882,6.25957 -13.43806,9.09706 -4.06225,4.2703 -4.75607,5.77331 -4.43612,9.60982 0.31563,3.78494 1.11063,4.91317 4.73937,6.72594 4.86425,2.42995 13.95319,2.78144 22.28063,0.86163 z M 140.82192,456.33635 c 1.73663,-1.73663 2.00961,-3.96817 1.58128,-12.92692 -0.43851,-9.17198 -1.16218,-12.13741 -4.73185,-19.39018 -4.73828,-9.62713 -20.58728,-27.12261 -22.20458,-24.51129 -0.60948,0.98409 -1.54817,1.09652 -2.75944,0.33052 -1.60893,-1.01748 -1.60487,-1.16564 0.0329,-1.19907 1.66099,-0.0339 1.66099,-0.17233 0,-1.24575 -2.97949,-1.92549 -6.0262,-1.44829 -8.86261,1.38811 -2.3867,2.38671 -2.58482,3.70182 -2.11129,14.01467 0.44231,9.6329 1.14104,12.66693 4.54955,19.7549 8.57394,17.82945 27.45022,30.84085 34.50606,23.78501 z m 400.65728,-3.81833 c 13.58597,-10.28054 22.24717,-26.61093 22.20347,-41.86379 -0.0361,-12.60907 -5.3504,-16.19147 -15.33712,-10.33887 -17.48406,10.24636 -30.91494,38.12264 -25.81415,53.57822 1.38056,4.18315 1.87904,4.54174 6.31344,4.54174 3.81561,0 6.43695,-1.22771 12.63436,-5.9173 z M 97.035074,450.23607 c 1.248482,-3.25349 0.852878,-10.48697 -0.573541,-10.48697 -0.766119,0 -0.991998,-1.064 -0.532936,-2.51037 0.498699,-1.57126 -0.239765,-4.18751 -1.974012,-6.99357 -3.117969,-5.04498 -16.447692,-15.41103 -19.817078,-15.41103 -10.648923,0 -1.729541,24.91566 12.047021,33.65251 6.560955,4.16082 9.729188,4.67164 10.850546,1.74943 z m 478.574286,-0.0166 c 5.22328,-2.47862 13.86351,-11.72691 16.21601,-17.35722 0.97549,-2.33468 1.77362,-6.4366 1.77362,-9.11535 0,-9.82153 -7.01396,-9.93076 -16.35735,-0.25472 -8.30581,8.60153 -13.46732,23.30638 -9.55421,27.21948 1.94858,1.94859 2.90335,1.88927 7.92193,-0.49219 z m 9.19688,-45.93672 c 7.28559,-3.76752 15.5483,-17.49086 17.02711,-28.27995 0.58664,-4.28008 0.2292,-6.05658 -1.69736,-8.43578 -2.2521,-2.78122 -2.74049,-2.88965 -6.32608,-1.40444 -5.14868,2.13264 -13.5349,11.37077 -16.58822,18.2733 -2.76246,6.24501 -3.32521,17.08381 -1.03053,19.84872 1.91863,2.31181 4.14188,2.31133 8.61508,-0.001 z m -495.984397,-0.9095 c 4.410931,-4.41093 -0.862776,-22.10606 -9.019165,-30.26245 -5.477362,-5.47736 -11.750151,-8.4991 -14.331452,-6.90376 -2.630992,1.62604 -1.817764,16.90434 1.235494,23.21154 5.197887,10.7374 17.542762,18.52703 22.115123,13.95467 z m 44.550277,-16.18838 c 2.88406,-9.08688 -8.37209,-27.82108 -21.18313,-35.25623 -6.48615,-3.76437 -13.805395,-5.1616 -16.280039,-3.10782 -7.718549,6.40582 11.137289,35.31803 26.111499,40.03752 7.13723,2.24947 10.25232,1.79024 11.35167,-1.67347 z m 410.65266,0.79806 c 10.48812,-3.57366 21.18663,-15.52928 24.74616,-27.65395 3.13809,-10.68914 -2.16238,-14.19734 -13.60528,-9.00488 -14.29312,6.48581 -26.79757,24.29211 -24.4774,34.85577 0.97411,4.4351 4.29445,4.88401 13.33652,1.80306 z m -28.014,-20.15866 c -0.28634,-1.89361 -0.52827,-0.64 -0.53763,2.78581 -0.009,3.4258 0.22493,4.97513 0.52062,3.44293 0.2957,-1.53219 0.30336,-4.33513 0.0169,-6.22874 z M 83.864461,355.74917 c 0.219635,-2.68081 -0.513853,-7.26535 -1.629971,-10.18786 -2.495406,-6.53413 -10.909883,-14.50136 -14.739542,-13.95612 -2.4248,0.34522 -2.713618,1.13483 -2.693409,7.36349 0.02632,8.11407 4.228222,15.754 10.927518,19.86852 5.658657,3.47538 7.65991,2.71575 8.135404,-3.08803 z m 506.831149,1.91168 c 5.66158,-4.18938 9.13212,-11.38478 9.13212,-18.93343 0,-4.527 -0.56318,-7.30611 -1.55719,-7.68431 -8.1675,-3.10749 -23.17139,22.43746 -16.87618,28.73266 1.68399,1.68399 5.26899,0.86883 9.30125,-2.11492 z m -267.42397,-1.37688 c 0,-1.37032 -0.56058,-2.49149 -1.24575,-2.49149 -0.68516,0 -1.24574,1.12117 -1.24574,2.49149 0,1.37033 0.56058,2.4915 1.24574,2.4915 0.68517,0 1.24575,-1.12117 1.24575,-2.4915 z M 126.66445,336.44553 c 1.67669,-1.31887 4.97566,-6.19753 7.33106,-10.84146 4.11211,-8.10748 4.28246,-8.99116 4.28067,-22.20556 -0.002,-11.74663 -0.39874,-14.50402 -2.71188,-18.8284 -3.59508,-6.72092 -5.88013,-8.47217 -9.77809,-7.49383 -3.77151,0.94658 -9.51592,9.44573 -12.61063,18.6581 -3.17224,9.44311 -2.80164,24.52132 0.80823,32.88438 2.4903,5.76932 6.33865,10.22474 8.83157,10.22474 0.44031,0 2.17239,-1.07908 3.84907,-2.39797 z m 423.82235,-4.29911 c 6.65095,-13.62131 2.44017,-40.71593 -8.07745,-51.97508 -5.31701,-5.69189 -8.4148,-4.62107 -12.96639,4.48211 -3.37341,6.74683 -3.73505,8.62664 -3.71474,19.3091 0.0192,10.08386 0.49723,12.8482 3.23144,18.68622 4.7312,10.10195 9.96384,15.21143 15.07472,14.71991 3.35273,-0.32244 4.52204,-1.26882 6.45242,-5.22226 z M 98.280822,330.64425 c 1.737218,-4.52712 0.624287,-13.83319 -2.446005,-20.45296 -3.907329,-8.42448 -9.540808,-14.43884 -15.306944,-16.34184 -3.979589,-1.31337 -4.571738,-1.18154 -6.744515,1.50173 -2.870392,3.54479 -2.225983,10.01195 1.838557,18.45141 6.139653,12.74815 20.215138,23.21002 22.658907,16.84166 z m 222.499328,-1.14386 c 0,-1.71291 -0.56059,-3.11437 -1.24575,-3.11437 -0.68516,0 -1.24575,1.40146 -1.24575,3.11437 0,1.7129 0.56059,3.11437 1.24575,3.11437 0.68516,0 1.24575,-1.40147 1.24575,-3.11437 z m 257.86986,-0.42595 c 5.04727,-3.67203 12.65289,-19.7937 12.88389,-27.31005 0.22806,-7.4205 -1.36494,-9.67345 -6.0147,-8.50643 -8.91021,2.23633 -20.57242,18.72954 -20.57242,29.09444 0,8.04906 1.81197,10.70583 6.65505,9.75784 2.1636,-0.4235 5.33528,-1.7896 7.04818,-3.0358 z M 98.659345,279.24969 c 8.474135,-4.53521 18.851485,-22.62741 19.945445,-34.77349 0.5519,-6.12766 0.27641,-7.49347 -1.90882,-9.46362 -2.19758,-1.98128 -3.15823,-2.10297 -6.88702,-0.87236 -12.360132,4.07922 -24.570093,22.62746 -24.640902,37.43218 -0.05291,11.06102 3.447152,13.05275 13.491297,7.67729 z m 480.029205,-0.92636 c 1.7217,-4.52841 -0.64219,-18.02342 -4.48577,-25.60838 -5.29517,-10.44948 -17.85009,-20.68676 -23.93337,-19.51522 -3.92322,0.75554 -5.69329,6.75798 -4.19416,14.22267 2.75615,13.72386 11.18576,26.32911 21.1135,31.57213 6.5284,3.44776 10.01106,3.24449 11.4998,-0.6712 z"
     id="path873" />
  <path
     style="opacity:1;fill:#ffffff;fill-opacity:0;stroke:#ac0000;stroke-width:1.32775;stroke-opacity:0"
     d="M 312.68278,665.11369 C 249.83714,658.61754 194.05887,635.48432 145.75253,595.88183 97.003779,555.91663 61.145414,499.04675 46.117605,437.86495 c -11.130994,-45.31693 -11.130994,-95.42156 0,-140.73849 C 64.274637,223.20485 111.06075,158.5384 176.72777,116.60075 240.34125,75.974579 317.62302,60.341702 392.41066,72.97152 c 119.24987,20.138408 215.80488,108.7889 244.14171,224.15494 7.6791,31.26345 10.50835,73.87311 6.87588,103.55397 -14.41826,117.81172 -95.52918,215.2191 -209.3334,251.39177 -37.4622,11.90736 -84.01156,16.90747 -121.41207,13.04149 z M 369.9872,543.79661 c 66.62005,-11.94307 120.53374,-61.93152 137.06042,-127.0816 4.68742,-18.47831 5.98466,-31.59304 5.17665,-52.33367 -0.895,-22.97321 -2.83698,-32.13384 -11.45006,-54.01157 -7.74133,-19.66345 -10.57232,-29.62187 -10.57232,-37.18978 0,-2.93927 -0.58843,-5.34414 -1.30761,-5.34414 -3.29538,0 -8.885,4.24061 -12.48327,9.47052 -5.96513,8.67001 -16.95353,32.59187 -21.85173,47.57142 -2.39965,7.33855 -5.21928,14.65659 -6.26585,16.26229 -3.01338,4.62328 -12.04516,7.89151 -23.84217,8.6275 l -10.51893,0.65624 0.86133,-3.92154 c 0.47372,-2.15685 0.60321,-3.92154 0.28776,-3.92154 -0.31543,0 -4.42423,1.45273 -9.13065,3.2283 -9.43951,3.5612 -16.16776,3.64048 -36.14823,0.42594 -17.28286,-2.78054 -25.93918,1.71232 -30.26156,15.70657 -3.21278,10.40175 -5.52123,14.72409 -9.56083,17.90164 -3.97826,3.1293 -7.07147,3.30631 -9.81603,0.56175 -1.6902,-1.69019 -1.98132,-4.41197 -1.69891,-15.88328 0.18745,-7.61395 -0.11623,-19.16913 -0.6748,-25.67816 -0.96539,-11.24934 -0.87017,-12.0469 1.92561,-16.12737 4.04625,-5.90559 9.17407,-8.58996 20.59427,-10.78093 26.82742,-5.14687 27.36282,-5.32292 33.80606,-11.11595 6.79855,-6.11247 12.31944,-15.75991 19.94459,-34.85202 2.73645,-6.85161 8.63132,-19.94783 13.09971,-29.1027 8.4148,-17.24031 10.79682,-25.18883 8.41035,-28.06436 -0.75091,-0.9048 -5.14801,-1.97119 -9.77132,-2.36977 -4.62331,-0.39858 -15.36986,-2.43464 -23.88121,-4.52459 -51.21396,-12.57549 -102.1409,-3.72417 -144.38693,25.09509 -22.70176,15.48662 -46.79408,44.28367 -59.2219,70.78675 -12.74494,27.17934 -15.99745,43.11518 -15.53458,76.11231 0.23377,16.66478 -0.0968,23.73094 -1.17054,25.02477 -0.82296,0.99162 -3.88545,2.50955 -6.80552,3.37318 -5.29659,1.56652 -9.66934,4.50624 -9.66934,6.50056 0,1.8048 11.82738,1.15769 24.79882,-1.35682 24.57506,-4.76387 56.68191,-17.29773 82.95839,-32.38526 21.41168,-12.29424 24.85663,-15.24117 33.96623,-29.05601 8.21169,-12.45313 14.1834,-17.95699 20.22394,-18.63958 l 3.11425,-0.35191 1.43553,16.19473 c 0.97712,11.023 1.05254,19.0996 0.23616,25.29101 -1.3189,10.00269 0.048,16.89351 3.72251,18.76715 4.29822,2.19161 10.14875,2.54212 14.17385,0.84916 6.13207,-2.57914 10.20186,-7.62025 15.63742,-19.36949 2.6943,-5.82387 6.10863,-11.65915 7.5874,-12.9673 4.76484,-4.21506 12.90684,-4.53308 30.70627,-1.19934 17.51974,3.28136 19.90009,3.23006 42.90716,-0.9246 7.15507,-1.29208 15.95515,-2.34923 19.55573,-2.34923 h 6.54652 l -1.39297,4.04868 c -2.22755,6.47439 -7.01134,12.92383 -12.30946,16.59542 -6.00249,4.15974 -17.38018,7.42141 -18.66069,5.34951 -1.03981,-1.68245 -3.63397,-0.327 -3.63397,1.89874 0,4.21247 9.89236,5.50451 19.62054,2.56264 6.87653,-2.0795 -0.0836,8.91875 -8.25407,13.04287 -2.48317,1.25341 -7.73823,3.20653 -11.6779,4.34029 -3.93968,1.13375 -7.16306,2.6063 -7.16306,3.27232 0,0.66878 3.90432,1.21095 8.72024,1.21095 10.48118,0 10.84398,0.94199 3.42581,8.89505 -5.74198,6.15602 -9.72337,8.17002 -19.13259,9.67828 l -6.09381,0.97683 5.99349,2.7744 c 6.49644,3.00721 6.48944,2.77231 0.29436,9.87469 -3.48493,3.99533 -11.26002,7.80976 -14.00171,6.86918 -1.23867,-0.42494 -4.57384,-3.22271 -7.41148,-6.21729 -6.00123,-6.33311 -9.77407,-6.94587 -15.01419,-2.43851 l -3.49489,3.00617 -3.20299,-3.83667 c -4.44235,-5.32122 -9.7571,-5.23493 -15.41644,0.25034 l -4.21671,4.08699 -1.89197,-3.65867 c -3.37366,-6.52394 -5.00126,-7.16058 -15.96755,-6.24584 -3.25779,0.27175 -6.5555,2.14576 -3.7759,2.14576 0.77784,0 1.08133,0.86764 0.6744,1.92808 -0.56252,1.4659 -1.47031,0.85317 -3.78695,-2.55608 -6.25063,-9.19863 -12.64771,-8.45147 -22.42793,2.61954 -7.71397,8.73205 -9.77536,9.70165 -24.87714,11.70128 -19.81291,2.62341 -46.16036,12.2833 -67.27133,24.664 -14.75509,8.65326 -20.24124,14.51526 -18.30553,19.55966 0.98605,2.56959 4.60017,2.35731 10.42064,-0.61206 2.68605,-1.37033 5.88709,-2.48115 7.11342,-2.4685 1.22633,0.0127 7.09416,4.93854 13.03962,10.94644 27.45706,27.74535 62.99646,45.07758 102.68866,50.08029 12.09181,1.52402 41.3881,0.53324 54.67741,-1.84915 z m -221.43173,-45.4638 c 4.01367,-1.82187 5.29443,-3.10139 5.29443,-5.28932 0,-4.18287 -5.40956,-11.5014 -11.70078,-15.82988 -9.68916,-6.66631 -17.69618,-9.20549 -29.40891,-9.32613 -17.690682,-0.1822 -22.292855,3.72721 -16.128779,13.70089 2.610106,4.22324 11.069659,11.02675 18.268349,14.69213 9.64244,4.90968 25.2811,5.86275 33.67569,2.05231 z m 390.08776,1.13759 c 17.72207,-4.08567 35.49307,-19.47188 31.37573,-27.16522 -1.77906,-3.32418 -7.52146,-4.32977 -21.03538,-3.68366 -8.9735,0.42903 -12.36363,1.22139 -19.48617,4.55443 -4.83337,2.2618 -10.73882,6.25957 -13.43806,9.09706 -4.06225,4.2703 -4.75607,5.77331 -4.43612,9.60982 0.31563,3.78494 1.11063,4.91317 4.73937,6.72594 4.86425,2.42995 13.95319,2.78144 22.28063,0.86163 z M 140.82192,456.33635 c 1.73663,-1.73663 2.00961,-3.96817 1.58128,-12.92692 -0.43851,-9.17198 -1.16218,-12.13741 -4.73185,-19.39018 -4.73828,-9.62713 -20.58728,-27.12261 -22.20458,-24.51129 -0.60948,0.98409 -1.54817,1.09652 -2.75944,0.33052 -1.60893,-1.01748 -1.60487,-1.16564 0.0329,-1.19907 1.66099,-0.0339 1.66099,-0.17233 0,-1.24575 -2.97949,-1.92549 -6.0262,-1.44829 -8.86261,1.38811 -2.3867,2.38671 -2.58482,3.70182 -2.11129,14.01467 0.44231,9.6329 1.14104,12.66693 4.54955,19.7549 8.57394,17.82945 27.45022,30.84085 34.50606,23.78501 z m 400.65728,-3.81833 c 13.58597,-10.28054 22.24717,-26.61093 22.20347,-41.86379 -0.0361,-12.60907 -5.3504,-16.19147 -15.33712,-10.33887 -17.48406,10.24636 -30.91494,38.12264 -25.81415,53.57822 1.38056,4.18315 1.87904,4.54174 6.31344,4.54174 3.81561,0 6.43695,-1.22771 12.63436,-5.9173 z M 97.035074,450.23607 c 1.248482,-3.25349 0.852878,-10.48697 -0.573541,-10.48697 -0.766119,0 -0.991998,-1.064 -0.532936,-2.51037 0.498699,-1.57126 -0.239765,-4.18751 -1.974012,-6.99357 -3.117969,-5.04498 -16.447692,-15.41103 -19.817078,-15.41103 -10.648923,0 -1.729541,24.91566 12.047021,33.65251 6.560955,4.16082 9.729188,4.67164 10.850546,1.74943 z m 478.574286,-0.0166 c 5.22328,-2.47862 13.86351,-11.72691 16.21601,-17.35722 0.97549,-2.33468 1.77362,-6.4366 1.77362,-9.11535 0,-9.82153 -7.01396,-9.93076 -16.35735,-0.25472 -8.30581,8.60153 -13.46732,23.30638 -9.55421,27.21948 1.94858,1.94859 2.90335,1.88927 7.92193,-0.49219 z m 9.19688,-45.93672 c 7.28559,-3.76752 15.5483,-17.49086 17.02711,-28.27995 0.58664,-4.28008 0.2292,-6.05658 -1.69736,-8.43578 -2.2521,-2.78122 -2.74049,-2.88965 -6.32608,-1.40444 -5.14868,2.13264 -13.5349,11.37077 -16.58822,18.2733 -2.76246,6.24501 -3.32521,17.08381 -1.03053,19.84872 1.91863,2.31181 4.14188,2.31133 8.61508,-0.001 z m -495.984397,-0.9095 c 4.410931,-4.41093 -0.862776,-22.10606 -9.019165,-30.26245 -5.477362,-5.47736 -11.750151,-8.4991 -14.331452,-6.90376 -2.630992,1.62604 -1.817764,16.90434 1.235494,23.21154 5.197887,10.7374 17.542762,18.52703 22.115123,13.95467 z m 44.550277,-16.18838 c 2.88406,-9.08688 -8.37209,-27.82108 -21.18313,-35.25623 -6.48615,-3.76437 -13.805395,-5.1616 -16.280039,-3.10782 -7.718549,6.40582 11.137289,35.31803 26.111499,40.03752 7.13723,2.24947 10.25232,1.79024 11.35167,-1.67347 z m 410.65266,0.79806 c 10.48812,-3.57366 21.18663,-15.52928 24.74616,-27.65395 3.13809,-10.68914 -2.16238,-14.19734 -13.60528,-9.00488 -14.29312,6.48581 -26.79757,24.29211 -24.4774,34.85577 0.97411,4.4351 4.29445,4.88401 13.33652,1.80306 z m -28.014,-20.15866 c -0.28634,-1.89361 -0.52827,-0.64 -0.53763,2.78581 -0.009,3.4258 0.22493,4.97513 0.52062,3.44293 0.2957,-1.53219 0.30336,-4.33513 0.0169,-6.22874 z M 83.864461,355.74917 c 0.219635,-2.68081 -0.513853,-7.26535 -1.629971,-10.18786 -2.495406,-6.53413 -10.909883,-14.50136 -14.739542,-13.95612 -2.4248,0.34522 -2.713618,1.13483 -2.693409,7.36349 0.02632,8.11407 4.228222,15.754 10.927518,19.86852 5.658657,3.47538 7.65991,2.71575 8.135404,-3.08803 z m 506.831149,1.91168 c 5.66158,-4.18938 9.13212,-11.38478 9.13212,-18.93343 0,-4.527 -0.56318,-7.30611 -1.55719,-7.68431 -8.1675,-3.10749 -23.17139,22.43746 -16.87618,28.73266 1.68399,1.68399 5.26899,0.86883 9.30125,-2.11492 z m -267.42397,-1.37688 c 0,-1.37032 -0.56058,-2.49149 -1.24575,-2.49149 -0.68516,0 -1.24574,1.12117 -1.24574,2.49149 0,1.37033 0.56058,2.4915 1.24574,2.4915 0.68517,0 1.24575,-1.12117 1.24575,-2.4915 z M 126.66445,336.44553 c 1.67669,-1.31887 4.97566,-6.19753 7.33106,-10.84146 4.11211,-8.10748 4.28246,-8.99116 4.28067,-22.20556 -0.002,-11.74663 -0.39874,-14.50402 -2.71188,-18.8284 -3.59508,-6.72092 -5.88013,-8.47217 -9.77809,-7.49383 -3.77151,0.94658 -9.51592,9.44573 -12.61063,18.6581 -3.17224,9.44311 -2.80164,24.52132 0.80823,32.88438 2.4903,5.76932 6.33865,10.22474 8.83157,10.22474 0.44031,0 2.17239,-1.07908 3.84907,-2.39797 z m 423.82235,-4.29911 c 6.65095,-13.62131 2.44017,-40.71593 -8.07745,-51.97508 -5.31701,-5.69189 -8.4148,-4.62107 -12.96639,4.48211 -3.37341,6.74683 -3.73505,8.62664 -3.71474,19.3091 0.0192,10.08386 0.49723,12.8482 3.23144,18.68622 4.7312,10.10195 9.96384,15.21143 15.07472,14.71991 3.35273,-0.32244 4.52204,-1.26882 6.45242,-5.22226 z M 98.280822,330.64425 c 1.737218,-4.52712 0.624287,-13.83319 -2.446005,-20.45296 -3.907329,-8.42448 -9.540808,-14.43884 -15.306944,-16.34184 -3.979589,-1.31337 -4.571738,-1.18154 -6.744515,1.50173 -2.870392,3.54479 -2.225983,10.01195 1.838557,18.45141 6.139653,12.74815 20.215138,23.21002 22.658907,16.84166 z m 222.499328,-1.14386 c 0,-1.71291 -0.56059,-3.11437 -1.24575,-3.11437 -0.68516,0 -1.24575,1.40146 -1.24575,3.11437 0,1.7129 0.56059,3.11437 1.24575,3.11437 0.68516,0 1.24575,-1.40147 1.24575,-3.11437 z m 257.86986,-0.42595 c 5.04727,-3.67203 12.65289,-19.7937 12.88389,-27.31005 0.22806,-7.4205 -1.36494,-9.67345 -6.0147,-8.50643 -8.91021,2.23633 -20.57242,18.72954 -20.57242,29.09444 0,8.04906 1.81197,10.70583 6.65505,9.75784 2.1636,-0.4235 5.33528,-1.7896 7.04818,-3.0358 z M 98.659345,279.24969 c 8.474135,-4.53521 18.851485,-22.62741 19.945445,-34.77349 0.5519,-6.12766 0.27641,-7.49347 -1.90882,-9.46362 -2.19758,-1.98128 -3.15823,-2.10297 -6.88702,-0.87236 -12.360132,4.07922 -24.570093,22.62746 -24.640902,37.43218 -0.05291,11.06102 3.447152,13.05275 13.491297,7.67729 z m 480.029205,-0.92636 c 1.7217,-4.52841 -0.64219,-18.02342 -4.48577,-25.60838 -5.29517,-10.44948 -17.85009,-20.68676 -23.93337,-19.51522 -3.92322,0.75554 -5.69329,6.75798 -4.19416,14.22267 2.75615,13.72386 11.18576,26.32911 21.1135,31.57213 6.5284,3.44776 10.01106,3.24449 11.4998,-0.6712 z"
     id="path875" />
  <path
     style="opacity:1;fill:#ffffff;fill-opacity:0;stroke:#ac0000;stroke-width:1.32775;stroke-opacity:0"
     d="m 304.58254,536.98131 c -28.88833,-5.26907 -53.38031,-17.52839 -80.35574,-40.22163 -17.62438,-14.82661 -19.70703,-20.12597 -10.19005,-25.92888 5.05519,-3.08238 6.25792,-3.06841 4.31043,0.0499 -1.39353,2.2314 -0.61549,3.42297 7.77537,11.90806 22.93291,23.19045 46.11052,36.34711 78.46287,44.53906 9.15266,2.31754 13.96815,2.6722 35.50382,2.61485 22.6934,-0.0604 25.9702,-0.35059 36.74957,-3.25398 31.13835,-8.38705 53.4083,-21.04075 74.926,-42.57266 13.66985,-13.67887 22.50021,-25.07576 22.02505,-28.42658 -0.38706,-2.72954 -1.01525,-2.89129 -13.76142,-3.54349 -14.46964,-0.74039 -17.47989,-2.15279 -21.64345,-10.15504 -5.12769,-9.85519 2.11543,-24.66534 12.06296,-24.66534 2.49963,0 5.06584,-1.5769 8.90714,-5.47332 7.57194,-7.68059 19.29718,-10.38944 29.53007,-6.82224 3.46769,1.20885 4.37219,1.07353 6.40374,-0.95802 3.83439,-3.83439 5.25344,-15.3066 4.44724,-35.95347 -0.79073,-20.25063 -3.7333,-37.08249 -9.09115,-52.00236 -9.34599,-26.02553 -11.47336,-26.05482 -23.17683,-0.31906 -7.52748,16.55281 -8.72076,21.42339 -7.72483,31.53042 0.57412,5.82651 0.31343,9.5796 -0.86624,12.47041 -1.55233,3.80412 -1.68047,2.95581 -1.59944,-10.5896 0.078,-13.03181 0.51885,-15.95634 3.8341,-25.43332 2.06031,-5.88957 5.85015,-14.47086 8.42187,-19.06952 4.59448,-8.2157 11.34063,-16.93773 13.10066,-16.93773 1.93402,0 11.93746,19.5605 15.8266,30.94691 6.2836,18.39683 8.05623,31.22091 7.43373,53.7793 -2.2168,80.33288 -53.72713,144.68224 -130.30155,162.77941 -18.48483,4.3686 -52.00288,5.17474 -71.01052,1.70787 z"
     id="path877" />
  <path
     style="opacity:1;fill:#ffffff;fill-opacity:0;stroke:#ac0000;stroke-width:1.32775;stroke-opacity:0"
     d="m 391.8916,449.22257 c 0.28549,-0.27088 5.00376,-3.81764 10.48505,-7.88169 8.32965,-6.17592 11.90913,-10.08403 21.80059,-23.80205 6.50904,-9.02709 12.00772,-15.61317 12.2193,-14.63574 0.55801,2.5779 -3.95141,10.80408 -7.90614,14.42254 -1.87209,1.7129 -6.59813,7.13614 -10.5023,12.05163 -8.13526,10.24256 -12.22262,13.92673 -19.6105,17.67609 -4.75165,2.41146 -7.82434,3.43911 -6.486,2.16922 z"
     id="path879" />
  <path
     style="opacity:1;fill:#ffffff;fill-opacity:0;stroke:#ac0000;stroke-width:1.32775;stroke-opacity:0"
     d="m 311.9624,527.50982 c -21.23807,-3.84593 -43.67667,-13.18676 -61.83984,-25.74295 -10.12304,-6.99805 -31.52634,-26.9017 -31.5065,-29.29895 0.0275,-3.32698 24.30985,-13.56571 45.20248,-19.05979 17.34993,-4.56248 20.52532,-4.66953 22.01846,-0.74227 1.32255,3.47857 6.75414,8.01708 10.81419,9.03609 1.57997,0.39654 5.56185,0.0318 8.84863,-0.8106 5.65874,-1.45029 6.23215,-1.35774 10.80199,1.74344 5.21892,3.54165 11.06506,4.1937 16.28325,1.81614 2.69887,-1.2297 3.95794,-1.03398 8.01415,1.24574 5.84189,3.28332 13.9219,3.51889 18.94392,0.55232 2.98413,-1.76277 4.08684,-1.8755 6.09261,-0.62288 3.35602,2.09586 10.57105,1.92026 14.98996,-0.36485 2.01474,-1.04186 4.78244,-4.08827 6.15046,-6.76981 1.87988,-3.68487 4.39131,-5.88423 10.28387,-9.00601 7.82709,-4.14665 12.41443,-8.3201 26.76133,-24.34684 8.91118,-9.95456 14.02257,-18.26324 14.0441,-22.82901 0.01,-2.00866 1.66145,-4.76398 4.48142,-7.47449 5.32084,-5.11433 7.354,-8.80526 8.54085,-15.50479 0.48551,-2.74064 2.93837,-7.98765 5.45079,-11.66001 l 4.56805,-6.67703 0.0502,-13.87782 c 0.0491,-13.58572 0.16141,-14.12691 5.33604,-25.71243 6.83005,-15.29185 11.75576,-24.27149 13.32022,-24.28296 1.97058,-0.0144 8.87907,15.15227 12.32937,27.06753 5.01269,17.31085 7.32191,36.39362 6.74075,55.70351 -0.60721,20.17475 -2.47928,25.66089 -8.209,24.05664 -1.86264,-0.52152 -7.31073,-0.91918 -12.10686,-0.88369 -9.7665,0.0723 -18.11444,3.43906 -20.69969,8.34835 -1.88569,3.58085 -3.49866,4.62472 -7.18261,4.64841 -4.48711,0.0288 -10.8497,4.52751 -13.09477,9.25865 -3.9754,8.37754 -2.12947,16.57215 5.33067,23.66434 3.61293,3.43473 4.51997,3.6601 16.957,4.21322 7.22693,0.32142 13.39388,0.99538 13.70432,1.49769 2.23825,3.62155 -30.12221,37.87153 -45.11625,47.75059 -19.02778,12.53673 -40.95691,21.42181 -61.87321,25.06931 -13.57962,2.36809 -41.34026,2.36565 -54.43035,-0.005 z"
     id="path881" />
  <path
     style="opacity:1;fill:#ffffff;fill-opacity:0;stroke:#ac0000;stroke-width:1.32775;stroke-opacity:0"
     d="m 172.19464,395.62847 c -2.84368,-2.84368 -3.84695,-13.76554 -3.03646,-33.05548 1.74677,-41.57333 19.43304,-79.77247 51.2814,-110.75855 42.92152,-41.75944 102.16567,-57.73035 159.86053,-43.09485 15.8317,4.01604 23.20722,7.68322 23.68788,11.77784 0.20107,1.7129 -0.0792,2.54665 -0.62288,1.85278 -0.54365,-0.69388 -4.63227,-2.259 -9.08582,-3.47806 -4.45355,-1.21905 -13.42294,-3.67524 -19.93197,-5.45819 -10.37786,-2.8427 -14.36478,-3.25796 -32.38946,-3.37356 -15.38806,-0.0987 -23.11996,0.42199 -30.75959,2.07142 -31.14637,6.72464 -62.74892,22.53652 -79.99541,40.02453 l -6.73504,6.82936 4.08794,4.65591 c 2.24837,2.56075 4.86622,6.51858 5.81745,8.79519 1.36061,3.2564 2.45663,4.14027 5.13859,4.14394 5.59056,0.008 10.99534,4.17959 13.32817,10.28802 1.90307,4.98312 1.92658,5.95561 0.24145,9.9887 -3.14474,7.52641 -6.77783,8.55664 -33.80023,9.58466 -13.68245,0.52053 -24.92189,1.51127 -26.45545,2.332 -8.01602,4.29005 -17.02542,57.35587 -13.14551,77.4278 1.0454,5.40816 1.23023,5.59388 5.24095,5.26611 12.29323,-1.00464 68.20278,-25.81499 83.36254,-36.99283 10.67891,-7.87396 9.09552,-4.3172 -1.78786,4.01603 -9.6545,7.39231 -27.88453,16.68427 -44.75269,22.81074 -6.16645,2.23963 -17.48529,6.46908 -25.15297,9.39877 -17.50797,6.6895 -21.78611,7.55717 -24.39556,4.94772 z m 0.26251,-26.57558 c -0.0661,-4.95332 -0.2687,-5.44392 -1.24366,-3.0115 -1.03376,2.57915 -0.4401,8.9288 0.8348,8.9288 0.26831,0 0.45229,-2.66278 0.40886,-5.9173 z"
     id="path883" />
  <path
     style="opacity:1;fill:#ffffff;fill-opacity:0;stroke:#ac0000;stroke-width:1.32775;stroke-opacity:0"
     d="M 312.68278,665.11369 C 249.83714,658.61754 194.05887,635.48432 145.75253,595.88183 97.003779,555.91663 61.145414,499.04675 46.117605,437.86495 c -11.130994,-45.31693 -11.130994,-95.42156 0,-140.73849 C 64.274637,223.20485 111.06075,158.5384 176.72777,116.60075 240.34125,75.974579 317.62302,60.341702 392.41066,72.97152 c 119.24987,20.138408 215.80488,108.7889 244.14171,224.15494 7.6791,31.26345 10.50835,73.87311 6.87588,103.55397 -14.41826,117.81172 -95.52918,215.2191 -209.3334,251.39177 -37.4622,11.90736 -84.01156,16.90747 -121.41207,13.04149 z M 369.9872,543.79661 c 66.62005,-11.94307 120.53374,-61.93152 137.06042,-127.0816 4.68742,-18.47831 5.98466,-31.59304 5.17665,-52.33367 -0.895,-22.97321 -2.83698,-32.13384 -11.45006,-54.01157 -7.74133,-19.66345 -10.57232,-29.62187 -10.57232,-37.18978 0,-2.93927 -0.58843,-5.34414 -1.30761,-5.34414 -3.29538,0 -8.885,4.24061 -12.48327,9.47052 -5.96513,8.67001 -16.95353,32.59187 -21.85173,47.57142 -2.39965,7.33855 -5.21928,14.65659 -6.26585,16.26229 -3.01338,4.62328 -12.04516,7.89151 -23.84217,8.6275 l -10.51893,0.65624 0.86133,-3.92154 c 0.47372,-2.15685 0.60321,-3.92154 0.28776,-3.92154 -0.31543,0 -4.42423,1.45273 -9.13065,3.2283 -9.43951,3.5612 -16.16776,3.64048 -36.14823,0.42594 -17.28286,-2.78054 -25.93918,1.71232 -30.26156,15.70657 -3.21278,10.40175 -5.52123,14.72409 -9.56083,17.90164 -3.97826,3.1293 -7.07147,3.30631 -9.81603,0.56175 -1.6902,-1.69019 -1.98132,-4.41197 -1.69891,-15.88328 0.18745,-7.61395 -0.11623,-19.16913 -0.6748,-25.67816 -0.96539,-11.24934 -0.87017,-12.0469 1.92561,-16.12737 4.04625,-5.90559 9.17407,-8.58996 20.59427,-10.78093 26.82742,-5.14687 27.36282,-5.32292 33.80606,-11.11595 6.79855,-6.11247 12.31944,-15.75991 19.94459,-34.85202 2.73645,-6.85161 8.63132,-19.94783 13.09971,-29.1027 8.4148,-17.24031 10.79682,-25.18883 8.41035,-28.06436 -0.75091,-0.9048 -5.14801,-1.97119 -9.77132,-2.36977 -4.62331,-0.39858 -15.36986,-2.43464 -23.88121,-4.52459 -51.21396,-12.57549 -102.1409,-3.72417 -144.38693,25.09509 -22.70176,15.48662 -46.79408,44.28367 -59.2219,70.78675 -12.74494,27.17934 -15.99745,43.11518 -15.53458,76.11231 0.23377,16.66478 -0.0968,23.73094 -1.17054,25.02477 -0.82296,0.99162 -3.88545,2.50955 -6.80552,3.37318 -5.29659,1.56652 -9.66934,4.50624 -9.66934,6.50056 0,1.8048 11.82738,1.15769 24.79882,-1.35682 24.57506,-4.76387 56.68191,-17.29773 82.95839,-32.38526 21.41168,-12.29424 24.85663,-15.24117 33.96623,-29.05601 8.21169,-12.45313 14.1834,-17.95699 20.22394,-18.63958 l 3.11425,-0.35191 1.43553,16.19473 c 0.97712,11.023 1.05254,19.0996 0.23616,25.29101 -1.3189,10.00269 0.048,16.89351 3.72251,18.76715 4.29822,2.19161 10.14875,2.54212 14.17385,0.84916 6.13207,-2.57914 10.20186,-7.62025 15.63742,-19.36949 2.6943,-5.82387 6.10863,-11.65915 7.5874,-12.9673 4.76484,-4.21506 12.90684,-4.53308 30.70627,-1.19934 17.51974,3.28136 19.90009,3.23006 42.90716,-0.9246 7.15507,-1.29208 15.95515,-2.34923 19.55573,-2.34923 h 6.54652 l -1.39297,4.04868 c -2.22755,6.47439 -7.01134,12.92383 -12.30946,16.59542 -6.00249,4.15974 -17.38018,7.42141 -18.66069,5.34951 -1.03981,-1.68245 -3.63397,-0.327 -3.63397,1.89874 0,4.21247 9.89236,5.50451 19.62054,2.56264 6.87653,-2.0795 -0.0836,8.91875 -8.25407,13.04287 -2.48317,1.25341 -7.73823,3.20653 -11.6779,4.34029 -3.93968,1.13375 -7.16306,2.6063 -7.16306,3.27232 0,0.66878 3.90432,1.21095 8.72024,1.21095 10.48118,0 10.84398,0.94199 3.42581,8.89505 -5.74198,6.15602 -9.72337,8.17002 -19.13259,9.67828 l -6.09381,0.97683 5.99349,2.7744 c 6.49644,3.00721 6.48944,2.77231 0.29436,9.87469 -3.48493,3.99533 -11.26002,7.80976 -14.00171,6.86918 -1.23867,-0.42494 -4.57384,-3.22271 -7.41148,-6.21729 -6.00123,-6.33311 -9.77407,-6.94587 -15.01419,-2.43851 l -3.49489,3.00617 -3.20299,-3.83667 c -4.44235,-5.32122 -9.7571,-5.23493 -15.41644,0.25034 l -4.21671,4.08699 -1.89197,-3.65867 c -3.37366,-6.52394 -5.00126,-7.16058 -15.96755,-6.24584 -3.25779,0.27175 -6.5555,2.14576 -3.7759,2.14576 0.77784,0 1.08133,0.86764 0.6744,1.92808 -0.56252,1.4659 -1.47031,0.85317 -3.78695,-2.55608 -6.25063,-9.19863 -12.64771,-8.45147 -22.42793,2.61954 -7.71397,8.73205 -9.77536,9.70165 -24.87714,11.70128 -19.81291,2.62341 -46.16036,12.2833 -67.27133,24.664 -14.75509,8.65326 -20.24124,14.51526 -18.30553,19.55966 0.98605,2.56959 4.60017,2.35731 10.42064,-0.61206 2.68605,-1.37033 5.88709,-2.48115 7.11342,-2.4685 1.22633,0.0127 7.09416,4.93854 13.03962,10.94644 27.45706,27.74535 62.99646,45.07758 102.68866,50.08029 12.09181,1.52402 41.3881,0.53324 54.67741,-1.84915 z m -221.43173,-45.4638 c 4.01367,-1.82187 5.29443,-3.10139 5.29443,-5.28932 0,-4.18287 -5.40956,-11.5014 -11.70078,-15.82988 -9.68916,-6.66631 -17.69618,-9.20549 -29.40891,-9.32613 -17.690682,-0.1822 -22.292855,3.72721 -16.128779,13.70089 2.610106,4.22324 11.069659,11.02675 18.268349,14.69213 9.64244,4.90968 25.2811,5.86275 33.67569,2.05231 z m 390.08776,1.13759 c 17.72207,-4.08567 35.49307,-19.47188 31.37573,-27.16522 -1.77906,-3.32418 -7.52146,-4.32977 -21.03538,-3.68366 -8.9735,0.42903 -12.36363,1.22139 -19.48617,4.55443 -4.83337,2.2618 -10.73882,6.25957 -13.43806,9.09706 -4.06225,4.2703 -4.75607,5.77331 -4.43612,9.60982 0.31563,3.78494 1.11063,4.91317 4.73937,6.72594 4.86425,2.42995 13.95319,2.78144 22.28063,0.86163 z M 140.82192,456.33635 c 1.73663,-1.73663 2.00961,-3.96817 1.58128,-12.92692 -0.43851,-9.17198 -1.16218,-12.13741 -4.73185,-19.39018 -4.73828,-9.62713 -20.58728,-27.12261 -22.20458,-24.51129 -0.60948,0.98409 -1.54817,1.09652 -2.75944,0.33052 -1.60893,-1.01748 -1.60487,-1.16564 0.0329,-1.19907 1.66099,-0.0339 1.66099,-0.17233 0,-1.24575 -2.97949,-1.92549 -6.0262,-1.44829 -8.86261,1.38811 -2.3867,2.38671 -2.58482,3.70182 -2.11129,14.01467 0.44231,9.6329 1.14104,12.66693 4.54955,19.7549 8.57394,17.82945 27.45022,30.84085 34.50606,23.78501 z m 400.65728,-3.81833 c 13.58597,-10.28054 22.24717,-26.61093 22.20347,-41.86379 -0.0361,-12.60907 -5.3504,-16.19147 -15.33712,-10.33887 -17.48406,10.24636 -30.91494,38.12264 -25.81415,53.57822 1.38056,4.18315 1.87904,4.54174 6.31344,4.54174 3.81561,0 6.43695,-1.22771 12.63436,-5.9173 z M 97.035074,450.23607 c 1.248482,-3.25349 0.852878,-10.48697 -0.573541,-10.48697 -0.766119,0 -0.991998,-1.064 -0.532936,-2.51037 0.498699,-1.57126 -0.239765,-4.18751 -1.974012,-6.99357 -3.117969,-5.04498 -16.447692,-15.41103 -19.817078,-15.41103 -10.648923,0 -1.729541,24.91566 12.047021,33.65251 6.560955,4.16082 9.729188,4.67164 10.850546,1.74943 z m 478.574286,-0.0166 c 5.22328,-2.47862 13.86351,-11.72691 16.21601,-17.35722 0.97549,-2.33468 1.77362,-6.4366 1.77362,-9.11535 0,-9.82153 -7.01396,-9.93076 -16.35735,-0.25472 -8.30581,8.60153 -13.46732,23.30638 -9.55421,27.21948 1.94858,1.94859 2.90335,1.88927 7.92193,-0.49219 z m 9.19688,-45.93672 c 7.28559,-3.76752 15.5483,-17.49086 17.02711,-28.27995 0.58664,-4.28008 0.2292,-6.05658 -1.69736,-8.43578 -2.2521,-2.78122 -2.74049,-2.88965 -6.32608,-1.40444 -5.14868,2.13264 -13.5349,11.37077 -16.58822,18.2733 -2.76246,6.24501 -3.32521,17.08381 -1.03053,19.84872 1.91863,2.31181 4.14188,2.31133 8.61508,-0.001 z m -495.984397,-0.9095 c 4.410931,-4.41093 -0.862776,-22.10606 -9.019165,-30.26245 -5.477362,-5.47736 -11.750151,-8.4991 -14.331452,-6.90376 -2.630992,1.62604 -1.817764,16.90434 1.235494,23.21154 5.197887,10.7374 17.542762,18.52703 22.115123,13.95467 z m 44.550277,-16.18838 c 2.88406,-9.08688 -8.37209,-27.82108 -21.18313,-35.25623 -6.48615,-3.76437 -13.805395,-5.1616 -16.280039,-3.10782 -7.718549,6.40582 11.137289,35.31803 26.111499,40.03752 7.13723,2.24947 10.25232,1.79024 11.35167,-1.67347 z m 410.65266,0.79806 c 10.48812,-3.57366 21.18663,-15.52928 24.74616,-27.65395 3.13809,-10.68914 -2.16238,-14.19734 -13.60528,-9.00488 -14.29312,6.48581 -26.79757,24.29211 -24.4774,34.85577 0.97411,4.4351 4.29445,4.88401 13.33652,1.80306 z m -28.014,-20.15866 c -0.28634,-1.89361 -0.52827,-0.64 -0.53763,2.78581 -0.009,3.4258 0.22493,4.97513 0.52062,3.44293 0.2957,-1.53219 0.30336,-4.33513 0.0169,-6.22874 z M 83.864461,355.74917 c 0.219635,-2.68081 -0.513853,-7.26535 -1.629971,-10.18786 -2.495406,-6.53413 -10.909883,-14.50136 -14.739542,-13.95612 -2.4248,0.34522 -2.713618,1.13483 -2.693409,7.36349 0.02632,8.11407 4.228222,15.754 10.927518,19.86852 5.658657,3.47538 7.65991,2.71575 8.135404,-3.08803 z m 506.831149,1.91168 c 5.66158,-4.18938 9.13212,-11.38478 9.13212,-18.93343 0,-4.527 -0.56318,-7.30611 -1.55719,-7.68431 -8.1675,-3.10749 -23.17139,22.43746 -16.87618,28.73266 1.68399,1.68399 5.26899,0.86883 9.30125,-2.11492 z m -267.42397,-1.37688 c 0,-1.37032 -0.56058,-2.49149 -1.24575,-2.49149 -0.68516,0 -1.24574,1.12117 -1.24574,2.49149 0,1.37033 0.56058,2.4915 1.24574,2.4915 0.68517,0 1.24575,-1.12117 1.24575,-2.4915 z M 126.66445,336.44553 c 1.67669,-1.31887 4.97566,-6.19753 7.33106,-10.84146 4.11211,-8.10748 4.28246,-8.99116 4.28067,-22.20556 -0.002,-11.74663 -0.39874,-14.50402 -2.71188,-18.8284 -3.59508,-6.72092 -5.88013,-8.47217 -9.77809,-7.49383 -3.77151,0.94658 -9.51592,9.44573 -12.61063,18.6581 -3.17224,9.44311 -2.80164,24.52132 0.80823,32.88438 2.4903,5.76932 6.33865,10.22474 8.83157,10.22474 0.44031,0 2.17239,-1.07908 3.84907,-2.39797 z m 423.82235,-4.29911 c 6.65095,-13.62131 2.44017,-40.71593 -8.07745,-51.97508 -5.31701,-5.69189 -8.4148,-4.62107 -12.96639,4.48211 -3.37341,6.74683 -3.73505,8.62664 -3.71474,19.3091 0.0192,10.08386 0.49723,12.8482 3.23144,18.68622 4.7312,10.10195 9.96384,15.21143 15.07472,14.71991 3.35273,-0.32244 4.52204,-1.26882 6.45242,-5.22226 z M 98.280822,330.64425 c 1.737218,-4.52712 0.624287,-13.83319 -2.446005,-20.45296 -3.907329,-8.42448 -9.540808,-14.43884 -15.306944,-16.34184 -3.979589,-1.31337 -4.571738,-1.18154 -6.744515,1.50173 -2.870392,3.54479 -2.225983,10.01195 1.838557,18.45141 6.139653,12.74815 20.215138,23.21002 22.658907,16.84166 z m 222.499328,-1.14386 c 0,-1.71291 -0.56059,-3.11437 -1.24575,-3.11437 -0.68516,0 -1.24575,1.40146 -1.24575,3.11437 0,1.7129 0.56059,3.11437 1.24575,3.11437 0.68516,0 1.24575,-1.40147 1.24575,-3.11437 z m 257.86986,-0.42595 c 5.04727,-3.67203 12.65289,-19.7937 12.88389,-27.31005 0.22806,-7.4205 -1.36494,-9.67345 -6.0147,-8.50643 -8.91021,2.23633 -20.57242,18.72954 -20.57242,29.09444 0,8.04906 1.81197,10.70583 6.65505,9.75784 2.1636,-0.4235 5.33528,-1.7896 7.04818,-3.0358 z M 98.659345,279.24969 c 8.474135,-4.53521 18.851485,-22.62741 19.945445,-34.77349 0.5519,-6.12766 0.27641,-7.49347 -1.90882,-9.46362 -2.19758,-1.98128 -3.15823,-2.10297 -6.88702,-0.87236 -12.360132,4.07922 -24.570093,22.62746 -24.640902,37.43218 -0.05291,11.06102 3.447152,13.05275 13.491297,7.67729 z m 480.029205,-0.92636 c 1.7217,-4.52841 -0.64219,-18.02342 -4.48577,-25.60838 -5.29517,-10.44948 -17.85009,-20.68676 -23.93337,-19.51522 -3.92322,0.75554 -5.69329,6.75798 -4.19416,14.22267 2.75615,13.72386 11.18576,26.32911 21.1135,31.57213 6.5284,3.44776 10.01106,3.24449 11.4998,-0.6712 z"
     id="path885" />
  <path
     style="opacity:1;fill:#ffffff;fill-opacity:0;stroke:#ac0000;stroke-width:1.32775;stroke-opacity:0"
     d="m 304.58254,536.98131 c -28.88833,-5.26907 -53.38031,-17.52839 -80.35574,-40.22163 -17.62438,-14.82661 -19.70703,-20.12597 -10.19005,-25.92888 5.05519,-3.08238 6.25792,-3.06841 4.31043,0.0499 -1.39353,2.2314 -0.61549,3.42297 7.77537,11.90806 22.93291,23.19045 46.11052,36.34711 78.46287,44.53906 9.15266,2.31754 13.96815,2.6722 35.50382,2.61485 22.6934,-0.0604 25.9702,-0.35059 36.74957,-3.25398 31.13835,-8.38705 53.4083,-21.04075 74.926,-42.57266 13.66985,-13.67887 22.50021,-25.07576 22.02505,-28.42658 -0.38706,-2.72954 -1.01525,-2.89129 -13.76142,-3.54349 -14.46964,-0.74039 -17.47989,-2.15279 -21.64345,-10.15504 -5.12769,-9.85519 2.11543,-24.66534 12.06296,-24.66534 2.49963,0 5.06584,-1.5769 8.90714,-5.47332 7.57194,-7.68059 19.29718,-10.38944 29.53007,-6.82224 3.46769,1.20885 4.37219,1.07353 6.40374,-0.95802 3.83439,-3.83439 5.25344,-15.3066 4.44724,-35.95347 -0.79073,-20.25063 -3.7333,-37.08249 -9.09115,-52.00236 -9.34599,-26.02553 -11.47336,-26.05482 -23.17683,-0.31906 -7.52748,16.55281 -8.72076,21.42339 -7.72483,31.53042 0.57412,5.82651 0.31343,9.5796 -0.86624,12.47041 -1.55233,3.80412 -1.68047,2.95581 -1.59944,-10.5896 0.078,-13.03181 0.51885,-15.95634 3.8341,-25.43332 2.06031,-5.88957 5.85015,-14.47086 8.42187,-19.06952 4.59448,-8.2157 11.34063,-16.93773 13.10066,-16.93773 1.93402,0 11.93746,19.5605 15.8266,30.94691 6.2836,18.39683 8.05623,31.22091 7.43373,53.7793 -2.2168,80.33288 -53.72713,144.68224 -130.30155,162.77941 -18.48483,4.3686 -52.00288,5.17474 -71.01052,1.70787 z"
     id="path887" />
  <path
     style="opacity:1;fill:#ffffff;fill-opacity:0;stroke:#ac0000;stroke-width:1.32775;stroke-opacity:0.04016064"
     d="m 391.8916,449.22257 c 0.28549,-0.27088 5.00376,-3.81764 10.48505,-7.88169 8.32965,-6.17592 11.90913,-10.08403 21.80059,-23.80205 6.50904,-9.02709 12.00772,-15.61317 12.2193,-14.63574 0.55801,2.5779 -3.95141,10.80408 -7.90614,14.42254 -1.87209,1.7129 -6.59813,7.13614 -10.5023,12.05163 -8.13526,10.24256 -12.22262,13.92673 -19.6105,17.67609 -4.75165,2.41146 -7.82434,3.43911 -6.486,2.16922 z"
     id="path889" />
  <path
     style="opacity:1;fill:#ffffff;fill-opacity:0;stroke:#ac0000;stroke-width:1.32775;stroke-opacity:1"
     d=""
     id="path891" />
  <path
     style="opacity:1;fill:#ffffff;fill-opacity:0;stroke:#ac0000;stroke-width:0.331938;stroke-opacity:0"
     d="m 347.03535,467.95959 c -2.27863,-0.43586 -5.09821,-1.84931 -7.36053,-3.68981 -1.93484,-1.57409 -1.97773,-1.63798 -0.97004,-1.44535 0.57986,0.11085 2.26162,0.70803 3.73724,1.32708 5.7743,2.4224 6.62066,2.67264 8.60025,2.5428 2.53627,-0.16634 3.93319,-0.91421 6.77214,-3.62559 l 2.41201,-2.30363 3.44948,2.10241 c 4.46667,2.72238 5.94418,3.27235 8.78101,3.26852 4.31395,-0.006 6.63609,-1.77318 9.69544,-7.37911 1.00924,-1.84933 2.2487,-3.88973 2.75434,-4.53422 0.85455,-1.08921 5.25952,-4.90122 5.66361,-4.90122 0.0991,0 0.1802,0.21372 0.1802,0.47494 0,0.28342 0.39494,0.55393 0.97942,0.67082 l 0.97942,0.19589 -1.18087,0.60582 c -2.0098,1.03109 -3.99256,3.28836 -4.8083,5.47399 -2.36524,6.33725 -7.40991,10.06615 -13.72158,10.14265 -3.00111,0.0364 -4.67148,-0.46952 -7.47449,-2.26374 -2.18503,-1.39863 -3.29234,-1.41975 -5.0517,-0.0963 -4.43756,3.33798 -8.50498,4.37749 -13.43705,3.43407 z"
     id="path893" />
  <path
     style="opacity:1;fill:#ffffff;fill-opacity:0;stroke:#ac0000;stroke-width:0.331938;stroke-opacity:0"
     d="m 322.23435,465.08727 c -2.06032,-0.59973 -4.41949,-1.877 -6.30799,-3.41521 -4.59982,-3.74661 -5.09601,-3.89048 -8.25828,-2.39447 -2.9301,1.38617 -4.91344,1.8793 -7.52443,1.87087 -2.93251,-0.009 -4.63598,-0.39278 -7.02866,-1.58157 -3.40193,-1.69023 -5.68636,-4.3569 -6.71842,-7.84257 -0.36594,-1.23593 -0.80803,-2.42232 -0.98242,-2.63643 -0.23793,-0.29212 -0.12332,-0.3893 0.45913,-0.3893 0.69613,0 0.81286,0.18474 1.13146,1.79077 0.74142,3.73735 2.81548,6.8584 5.48737,8.25739 0.88781,0.46486 2.01351,0.6912 3.91785,0.78777 3.16243,0.16036 5.84177,-0.42924 11.04902,-2.43137 4.84316,-1.86213 4.45259,-1.89448 5.89941,0.48855 1.43239,2.35925 3.7191,4.63913 5.32675,5.31085 1.53155,0.63993 4.56001,0.58295 9.15508,-0.17224 2.14112,-0.35189 4.73165,-0.63983 5.75672,-0.63986 l 1.86377,-7e-5 -1.08518,0.63012 c -3.71274,2.15582 -5.06482,2.61508 -7.93678,2.69587 -1.63324,0.0459 -3.38778,-0.0914 -4.2044,-0.3291 z"
     id="path895" />
  <path
     style="opacity:1;fill:#ffffff;fill-opacity:0;stroke:#ac0000;stroke-width:0.331938;stroke-opacity:1"
     d=""
     id="path897" />
  <path
     style="opacity:1;fill:#ffffff;fill-opacity:0;stroke:#ac0000;stroke-width:0.331938;stroke-opacity:0"
     d="m 276.14167,349.64656 c 0,-0.26178 -0.38451,-0.32682 -1.24772,-0.21104 l -1.24771,0.16735 2.05107,-2.21535 c 2.46597,-2.66347 3.31352,-4.05625 4.64075,-7.62614 4.37512,-11.76792 12.6476,-18.84507 27.88162,-23.85291 6.39683,-2.10281 7.76855,-2.69599 8.98567,-3.88576 3.00577,-2.93824 10.42024,-5.46937 26.62189,-9.08812 16.75998,-3.74346 20.56902,-5.29179 25.23613,-10.25825 4.62792,-4.92475 11.03811,-16.43993 19.49776,-35.02553 7.03899,-15.46444 13.71254,-32.25701 13.71254,-34.5047 0,-0.52025 0.0577,-0.52738 0.72559,-0.0897 0.39908,0.26149 0.81952,0.38151 0.93431,0.26671 0.83747,-0.83746 -0.78321,3.71755 -3.28697,9.23821 -1.20411,2.655 -3.69496,8.82145 -5.53523,13.70323 -8.78421,23.30227 -13.42733,33.01552 -20.55283,42.99579 -7.3822,10.33981 -13.73716,13.72351 -32.48509,17.29664 -13.08662,2.49416 -16.81608,3.54883 -25.44497,7.19573 -4.78679,2.02307 -18.49784,8.95228 -20.98203,10.60377 -4.49503,2.98829 -7.69932,6.97805 -12.59709,15.68502 -3.82253,6.79548 -6.90769,11.08537 -6.90769,9.60509 z"
     id="path899" />
  <path
     style="opacity:1;fill:#ffffff;fill-opacity:0;stroke:#ac0000;stroke-width:0.165969;stroke-opacity:0"
     d="m 122.95286,407.17838 c -1.75604,-1.43897 -4.24687,-3.1556 -6.86141,-4.72876 l -2.18,-1.31169 0.59416,-0.095 c 0.34848,-0.0557 0.80138,-0.28858 1.09528,-0.56313 0.27562,-0.25746 0.53852,-0.46811 0.58422,-0.46811 0.18561,0 2.38897,1.87065 3.75515,3.18812 1.19076,1.14831 2.78889,2.90529 4.35914,4.79245 0.45429,0.54597 -0.0843,0.22042 -1.34654,-0.81387 z"
     id="path901" />
  <path
     style="opacity:1;fill:#ffffff;fill-opacity:0;stroke:#ac0000;stroke-width:0.165969;stroke-opacity:0.00803213"
     d="m 109.68462,399.19796 c -0.64234,-0.25835 -1.76352,-0.59133 -2.4915,-0.73996 l -1.32361,-0.27023 0.83891,-0.42511 c 1.20515,-0.61071 2.18481,-0.66848 4.01955,-0.23705 1.40795,0.33107 1.48443,0.36781 0.98859,0.47488 -0.81755,0.17654 -1.13264,0.74098 -0.78072,1.39855 0.20123,0.37599 0.17176,0.37126 -1.25122,-0.20108 z"
     id="path903" />
  <path
     style="opacity:1;fill:#ffffff;fill-opacity:0;stroke:#ac0000;stroke-width:0.0293394;stroke-opacity:0.07228915"
     d="m 127.95216,388.37079 c -1.97235,-0.0919 -4.81125,-1.03767 -8.75371,-2.91638 -1.24379,-0.5927 -1.78928,-0.87758 -1.78928,-0.93442 0,-0.0446 0.14047,0.0175 0.86023,0.38015 4.68274,2.35943 8.3585,3.38794 10.68779,2.99054 1.05915,-0.18071 1.88738,-0.68768 2.40277,-1.47079 0.0939,-0.1427 0.17076,-0.24564 0.17076,-0.22874 0,0.0662 -0.14983,0.44501 -0.26387,0.66713 -0.45439,0.88501 -1.34014,1.42483 -2.46134,1.50008 -0.12869,0.009 -0.28353,0.0191 -0.34409,0.0234 -0.0606,0.004 -0.28973,-7.1e-4 -0.50926,-0.0109 z"
     id="path905" />
  <path
     style="opacity:1;fill:#ffffff;fill-opacity:0;stroke:#ac0000;stroke-width:0.0414922;stroke-opacity:0.07630522"
     d="m 116.60911,384.15478 c -1.03262,-0.53306 -2.78804,-1.47859 -3.19223,-1.71943 -1.90971,-1.13792 -3.84369,-2.79415 -5.78348,-4.95288 -0.46948,-0.52246 -0.95134,-1.09611 -0.95134,-1.13256 0,-0.0177 0.39854,0.36369 0.88565,0.84756 0.97153,0.96507 1.48849,1.44426 2.34905,2.17742 2.01661,1.71806 4.49949,3.43395 6.86754,4.74607 0.67776,0.37555 0.61511,0.33513 0.59773,0.38564 -0.008,0.022 -0.3554,-0.13628 -0.77292,-0.35182 z"
     id="path907" />
  <path
     style="opacity:1;fill:#ffffff;fill-opacity:0;stroke:#ac0000;stroke-width:0.00518653;stroke-opacity:1"
     d="m 77.240341,373.5152 c -1.61479,-1.4035 -3.54597,-2.81824 -5.230304,-3.83163 -0.07009,-0.0422 -0.126631,-0.0775 -0.12564,-0.0785 0.002,-0.002 0.43129,0.2158 0.594364,0.3015 1.683536,0.88477 3.321991,2.05135 4.877153,3.47252 l 0.09854,0.09 v 0.0624 0.0624 l -0.06204,-2.2e-4 -0.06204,-2.2e-4 -0.09002,-0.0782 z"
     id="path909" />
  <path
     style="opacity:1;fill:#ffffff;fill-opacity:0;stroke:#ac0000;stroke-width:0.117358;stroke-opacity:0"
     d="m 83.633767,403.61647 c -1.143707,-0.14627 -2.493401,-0.77005 -4.063277,-1.8779 -1.243231,-0.87733 -4.212844,-3.81461 -5.494041,-5.4342 -1.514998,-1.91516 -4.394094,-6.33469 -4.23219,-6.49659 0.02792,-0.0279 0.344743,0.40663 0.704058,0.96567 1.737878,2.70384 3.756982,5.19939 6.009034,7.42697 2.381246,2.35537 4.410058,3.92743 6.111038,4.73522 0.710638,0.33748 0.994686,0.4098 1.76903,0.45045 0.507353,0.0266 0.902005,0.0689 0.877004,0.0939 -0.115032,0.11503 -1.175243,0.20115 -1.680656,0.13651 z"
     id="path911" />
  <path
     style="opacity:1;fill:#ffffff;fill-opacity:0;stroke:#ac0000;stroke-width:0.117358;stroke-opacity:0.02409638"
     d="m 96.154761,445.76677 c -0.01423,-1.81438 -0.142972,-3.17984 -0.435982,-4.62414 -0.174693,-0.86109 -0.177346,-0.9593 -0.02416,-0.89424 0.09465,0.0402 0.281536,0.0969 0.415302,0.12595 0.163893,0.0356 0.302529,0.20819 0.425099,0.52913 0.171039,0.44786 0.167685,0.64583 -0.05623,3.31885 -0.130963,1.56342 -0.254574,2.9169 -0.27469,3.00774 -0.02012,0.0908 -0.04232,-0.56764 -0.04935,-1.46329 z"
     id="path913" />
  <path
     style="opacity:1;fill:#ffffff;fill-opacity:0;stroke:#ac0000;stroke-width:0.117358;stroke-opacity:0.02008032"
     d="m 82.818724,443.55468 c -3.172049,-2.88481 -5.813359,-6.35692 -7.733956,-10.16661 -0.494932,-0.98175 -0.87255,-1.81232 -0.83915,-1.84572 0.0334,-0.0334 0.402821,0.54412 0.820936,1.28337 2.11287,3.73569 4.898844,7.44559 7.902297,10.52298 0.783146,0.80242 1.379428,1.45868 1.325072,1.45834 -0.05436,-3.4e-4 -0.718196,-0.5639 -1.475199,-1.25236 z"
     id="path915" />
  <path
     style="opacity:1;fill:#ffffff;fill-opacity:0;stroke:#ac0000;stroke-width:0.117358;stroke-opacity:0.02409638"
     d="m 94.721561,437.57474 c -0.791178,-2.24543 -2.179412,-5.02597 -3.610732,-7.23208 -0.387768,-0.59767 -0.682717,-1.10899 -0.655442,-1.13627 0.126448,-0.12644 2.069989,2.86968 3.370498,5.1959 0.440144,0.78729 0.949348,1.61983 1.131565,1.85011 0.323773,0.40916 0.328535,0.43294 0.209501,1.04604 -0.06699,0.34505 -0.135147,0.71713 -0.151458,0.82685 -0.01631,0.10972 -0.14858,-0.13803 -0.293932,-0.55055 z"
     id="path917" />
  <path
     style="opacity:1;fill:#ffffff;fill-opacity:0;stroke:#ac0000;stroke-width:0.117358;stroke-opacity:0.03212851"
     d="m 99.114948,470.95716 c 1.330122,-0.71634 3.957212,-1.3494 6.650762,-1.60264 2.57228,-0.24185 8.04498,-0.027 10.8403,0.4255 0.26352,0.0427 -1.71845,0.079 -4.40438,0.0808 -3.84274,0.003 -5.28716,0.0444 -6.77751,0.19635 -2.36436,0.24105 -4.29842,0.55172 -5.630801,0.9045 -0.56558,0.14975 -1.061074,0.27003 -1.101096,0.2673 -0.04002,-0.003 0.150203,-0.12506 0.422725,-0.27183 z"
     id="path919" />
  <path
     style="opacity:1;fill:#ffffff;fill-opacity:0;stroke:#ac0000;stroke-width:0.331938;stroke-opacity:0"
     d="m 135.15328,456.54986 -1.09003,-0.3354 1.49731,-0.23614 c 1.48768,-0.23462 3.6414,-1.54707 3.6414,-2.21901 0,-0.19112 0.084,-0.26345 0.18676,-0.16074 0.33779,0.33779 -0.53188,2.39683 -1.2142,2.87474 -0.76398,0.53511 -1.47259,0.55307 -3.02124,0.0765 z"
     id="path921" />
  <path
     style="opacity:1;fill:#ffffff;fill-opacity:0;stroke:#ac0000;stroke-width:0.117358;stroke-opacity:0"
     d="m 125.63755,387.61574 c -2.07265,-0.44265 -4.26255,-1.27723 -7.22335,-2.75282 -10.51495,-5.24043 -18.32383,-14.66493 -20.363155,-24.57623 -0.538924,-2.61922 -0.706973,-5.75464 -0.37688,-7.03175 0.587539,-2.27317 2.730855,-3.27476 5.896885,-2.75569 5.13688,0.8422 11.88535,4.9536 17.38889,10.59389 3.24572,3.32637 4.99332,5.793 7.01187,9.89683 1.78631,3.63168 2.88305,6.4429 3.57534,9.16455 0.32726,1.2866 0.35727,1.54913 0.36176,3.16474 0.005,1.71782 -0.003,1.77905 -0.31544,2.45549 -0.88307,1.91246 -2.81914,2.5109 -5.95592,1.84099 z"
     id="path923" />
  <path
     style="opacity:1;fill:#ffffff;fill-opacity:0;stroke:#ac0000;stroke-width:0.117358;stroke-opacity:1"
     d=""
     id="path925" />
  <path
     style="opacity:1;fill:#ffffff;fill-opacity:0;stroke:#ac0000;stroke-width:0.117358;stroke-opacity:1"
     d=""
     id="path927" />
  <path
     style="opacity:1;fill:#ffffff;fill-opacity:0;stroke:#ac0000;stroke-width:0.117358;stroke-opacity:0"
     d="m 97.353006,357.2508 c -0.160396,-0.86416 -0.207144,-3.49757 -0.07414,-4.17627 0.291416,-1.48703 1.0408,-2.46414 2.140239,-2.79064 0.625005,-0.18561 1.672705,-0.21665 1.774105,-0.0526 0.0393,0.0636 -0.0651,0.11011 -0.24739,0.11011 -0.62615,0 -1.660819,0.44503 -2.235101,0.96136 -1.097273,0.98654 -1.369467,1.93609 -1.291531,4.5055 0.03004,0.9902 0.04238,1.80037 0.02742,1.80037 -0.01495,0 -0.05708,-0.16103 -0.09361,-0.35786 z"
     id="path929" />
  <path
     style="opacity:1;fill:#ffffff;fill-opacity:0;stroke:#ac0000;stroke-width:0.0829845;stroke-opacity:0"
     d="m 532.48121,418.59216 c 0,-0.10543 0.63874,-1.11735 1.69721,-2.68879 5.16837,-7.67315 11.5023,-13.66373 16.67455,-15.77067 1.37972,-0.56204 2.19047,-0.74702 3.42883,-0.78232 1.00575,-0.0287 1.03954,-0.0247 0.78326,0.0926 -0.14731,0.0674 -1.04417,0.46707 -1.99302,0.88819 -2.79933,1.2424 -3.94327,1.8521 -5.95329,3.17299 -3.33596,2.19222 -6.31925,4.83698 -9.50729,8.42844 -1.37575,1.54983 -3.34112,4.09349 -4.44652,5.75483 -0.58734,0.88274 -0.68373,1.01029 -0.68373,0.90478 z"
     id="path931" />
  <path
     style="opacity:1;fill:#ffffff;fill-opacity:0;stroke:#ac0000;stroke-width:0.0829845;stroke-opacity:0.02409638"
     d="m 545.01655,447.49694 c 0,-0.0292 0.29017,-0.41395 0.64483,-0.85492 7.61658,-9.47024 13.6137,-22.0196 15.12227,-31.64432 0.1065,-0.6795 0.1965,-1.35809 0.19999,-1.50797 0.003,-0.14988 0.0252,-0.22515 0.0483,-0.16728 0.0603,0.15138 -0.10836,1.85899 -0.33564,3.39844 -1.49411,10.12032 -6.4566,20.73484 -13.219,28.2748 -0.98252,1.09549 -2.46071,2.59803 -2.46071,2.50125 z"
     id="path933" />
  <path
     style="opacity:1;fill:#ffffff;fill-opacity:0;stroke:#ac0000;stroke-width:0.0414922;stroke-opacity:1"
     d="m 572.17993,433.2564 c -4.3e-4,-0.0709 0.67491,-1.37479 1.09055,-2.10546 1.12231,-1.97295 2.51753,-3.92308 3.96893,-5.54747 0.44513,-0.49818 1.68699,-1.73452 2.23949,-2.22952 2.77133,-2.48295 5.95683,-4.26137 9.00268,-5.02609 1.25641,-0.31544 2.12315,-0.29516 2.83752,0.0664 0.40978,0.2074 0.62345,0.41472 0.79113,0.76766 0.44077,0.92775 0.78722,2.58986 0.72566,3.48141 -0.0649,0.9396 -0.31543,2.24189 -0.66399,3.45129 -0.20675,0.71736 -0.38848,1.26015 -0.35673,1.06551 0.009,-0.0535 0.0964,-0.40797 0.19472,-0.78765 0.19338,-0.74641 0.33077,-1.44246 0.43621,-2.20993 0.0834,-0.60706 0.0961,-2.01585 0.0223,-2.47203 -0.164,-1.01391 -0.47439,-1.6998 -1.00851,-2.22859 -0.48105,-0.47624 -1.14505,-0.74793 -1.97611,-0.80854 -1.69218,-0.12343 -4.21065,0.86528 -7.02334,2.75725 -1.28086,0.86158 -2.72166,1.97254 -3.60445,2.77928 -2.18104,1.99316 -4.50186,5.11008 -6.40014,8.59554 -0.15159,0.27835 -0.27578,0.48127 -0.27596,0.45095 z"
     id="path935" />
  <path
     style="opacity:0.99677419;fill:#ffffff;fill-opacity:0;stroke:#000000;stroke-width:0.165969;stroke-opacity:0"
     d="m 431.54416,406.44244 c 0,-0.0741 0.48078,-0.80864 1.06841,-1.63237 1.44076,-2.01965 6.07162,-8.97754 7.57789,-11.38582 7.03496,-11.24779 11.85401,-20.88054 15.41701,-30.81691 l 0.97166,-2.70971 0.11364,0.84109 c 0.17856,1.32157 0.44224,1.69092 1.21017,1.69516 0.34576,0.002 0.52394,-0.14313 0.89539,-0.72883 0.69664,-1.0985 0.55886,-0.51988 -0.2989,1.25521 -0.94983,1.96564 -2.23993,3.92699 -3.8885,5.91175 -3.04284,3.66334 -3.99317,5.80517 -4.37468,9.85958 -0.31844,3.3841 -0.93351,5.65953 -2.22475,8.23034 -1.78032,3.54458 -4.07528,6.18988 -7.59139,8.75028 -2.16535,1.5768 -3.08978,3.41188 -3.12261,6.1987 -0.0107,0.90677 -0.0415,1.03056 -0.18332,0.73628 -0.1904,-0.39506 -0.71601,-0.58226 -1.25502,-0.44698 -0.35106,0.0881 -2.14344,1.85162 -3.58082,3.52313 -0.4038,0.46958 -0.73418,0.79317 -0.73418,0.7191 z"
     id="path937" />
</svg>
